<svg width="16" height="16" viewBox="0 0 16 16" fill="none" xmlns="http://www.w3.org/2000/svg">
<path fill-rule="evenodd" clip-rule="evenodd" d="M3.99833 3.3313H5.33222C5.70057 3.3313 5.99917 3.6299 5.99917 3.99824V5.33213H3.33139V3.99824C3.33139 3.6299 3.62999 3.3313 3.99833 3.3313Z" stroke="#242729" stroke-linecap="round" stroke-linejoin="round"/>
<path d="M4.66526 1.99744V3.33133" stroke="#242729" stroke-linecap="round" stroke-linejoin="round"/>
<path d="M1.99747 14.0024V5.9991C1.99747 5.63075 2.29607 5.33215 2.66441 5.33215H6.66608C7.03442 5.33215 7.33302 5.63075 7.33302 5.9991V7.99993" stroke="#242729" stroke-linecap="round" stroke-linejoin="round"/>
<path d="M9.33386 7.99998V3.33137C9.33394 3.11269 9.44123 2.90794 9.62099 2.7834C9.80074 2.65886 10.0301 2.63035 10.2349 2.70711L13.5696 3.95763C13.8301 4.05528 14.0026 4.30436 14.0025 4.58256V14.0025" stroke="#242729" stroke-linecap="round" stroke-linejoin="round"/>
<path d="M5.33221 14.0025V8.66694C5.33221 8.2986 5.63082 8 5.99916 8H10.0008C10.3692 8 10.6678 8.2986 10.6678 8.66694V14.0025" stroke="#242729" stroke-linecap="round" stroke-linejoin="round"/>
<path d="M6.99957 11.8015H9.00041" stroke="#242729" stroke-linecap="round" stroke-linejoin="round"/>
<path d="M6.99957 10.0007H9.00041" stroke="#242729" stroke-linecap="round" stroke-linejoin="round"/>
<path d="M14.6694 14.0024H1.33054" stroke="#242729" stroke-linecap="round" stroke-linejoin="round"/>
</svg>
