<svg width="16" height="16" viewBox="0 0 16 16" fill="none" xmlns="http://www.w3.org/2000/svg">
<path d="M9.33333 10.6534V11.3268" stroke="#242729" stroke-linecap="round" stroke-linejoin="round"/>
<path d="M6.66671 10.6534V11.3268" stroke="#242729" stroke-linecap="round" stroke-linejoin="round"/>
<path fill-rule="evenodd" clip-rule="evenodd" d="M13.3334 8.00004H2.66667C2.29867 8.00004 2 7.70138 2 7.33338V6.00004C2 5.63204 2.29867 5.33337 2.66667 5.33337H13.3334C13.7014 5.33337 14 5.63204 14 6.00004V7.33338C14 7.70138 13.7014 8.00004 13.3334 8.00004Z" stroke="#242729" stroke-linecap="round" stroke-linejoin="round"/>
<path d="M9.35999 2.02002L11.3333 5.31336" stroke="#242729" stroke-linecap="round" stroke-linejoin="round"/>
<path d="M6.63996 2.02002L4.66663 5.31336" stroke="#242729" stroke-linecap="round" stroke-linejoin="round"/>
<path d="M13.172 8L12.0474 13.1927C11.948 13.6527 11.5407 13.9807 11.07 13.9807H4.93001C4.45934 13.9807 4.05267 13.6527 3.95267 13.1927L2.828 8" stroke="#242729" stroke-linecap="round" stroke-linejoin="round"/>
</svg>
