<svg width="16" height="16" viewBox="0 0 16 16" fill="none" xmlns="http://www.w3.org/2000/svg">
<path fill-rule="evenodd" clip-rule="evenodd" d="M4.63637 7.86571L4.63639 7.8657L6.54547 9.74628L6.54545 9.7463L4.63637 7.86571ZM11.3636 5.00004L12 5.6269L12 5.62689L11.3637 5.00002L11.3636 5.00004ZM10.9426 4.57258L6.54548 8.90407L5.05745 7.43825C4.82389 7.20818 4.44889 7.20818 4.21533 7.43825L3.57896 8.06512C3.46448 8.17789 3.40002 8.33187 3.40002 8.49256C3.40002 8.65326 3.46448 8.80723 3.57896 8.92L6.12442 11.4275C6.35798 11.6575 6.73298 11.6575 6.96654 11.4275L12.4211 6.05433C12.5356 5.94156 12.6 5.78758 12.6 5.62689C12.6 5.4662 12.5356 5.31222 12.4211 5.19945L11.7847 4.57258C11.5512 4.34251 11.1762 4.34251 10.9426 4.57258Z" fill="#242729"/>
</svg>
