<svg width="16" height="16" viewBox="0 0 16 16" fill="none" xmlns="http://www.w3.org/2000/svg">
<path d="M14.4237 7.43789C14.5731 7.66925 14.6873 7.8627 14.7648 7.99996C14.6873 8.13721 14.5731 8.33067 14.4237 8.56203C14.1125 9.04395 13.6513 9.68526 13.0519 10.3247C11.8439 11.6132 10.1336 12.8333 7.99999 12.8333C5.86641 12.8333 4.15608 11.6132 2.94809 10.3247C2.34866 9.68526 1.8875 9.04395 1.57626 8.56203C1.42684 8.33067 1.31273 8.13722 1.23514 7.99996C1.31273 7.8627 1.42684 7.66925 1.57626 7.43789C1.8875 6.95597 2.34866 6.31466 2.94809 5.67526C4.15608 4.38674 5.86641 3.16663 7.99999 3.16663C10.1336 3.16663 11.8439 4.38674 13.0519 5.67526C13.6513 6.31466 14.1125 6.95597 14.4237 7.43789Z" stroke="#242729" stroke-linecap="round" stroke-linejoin="round"/>
<path d="M8 10C9.10457 10 10 9.10457 10 8C10 6.89543 9.10457 6 8 6C6.89543 6 6 6.89543 6 8C6 9.10457 6.89543 10 8 10Z" fill="#242729"/>
</svg>
