<svg width="16" height="16" viewBox="0 0 16 16" fill="none" xmlns="http://www.w3.org/2000/svg">
<path fill-rule="evenodd" clip-rule="evenodd" d="M10.288 2.876L9.89934 2.74667C9.59268 2.644 9.25401 2.72 9.02001 2.94333L8.61601 3.33C8.27334 3.658 7.73134 3.652 7.39601 3.31667L7.00134 2.922C6.73601 2.65667 6.33068 2.59067 5.99468 2.75867L5.62801 2.942C5.33868 3.08667 5.15334 3.38 5.14534 3.70333L5.13334 4.262C5.12334 4.73667 4.73601 5.11533 4.26134 5.11533H3.70334C3.32801 5.11533 2.99468 5.356 2.87601 5.712L2.74668 6.10067C2.64401 6.40733 2.72001 6.746 2.94468 6.98067L3.33134 7.38467C3.65934 7.72733 3.65334 8.26933 3.31801 8.60467L2.92334 8.99933C2.65801 9.26467 2.59201 9.67 2.76001 10.006L2.94334 10.3727C3.08801 10.662 3.38134 10.848 3.70468 10.8547L4.26334 10.8667C4.73801 10.8767 5.11668 11.264 5.11668 11.7387V12.2967C5.11668 12.672 5.35734 13.0053 5.71334 13.124L6.10201 13.2533C6.40934 13.356 6.74734 13.28 6.98134 13.056L7.38534 12.6693C7.72801 12.3413 8.27001 12.3473 8.60534 12.6827L9.00001 13.0773C9.26534 13.3427 9.67068 13.4087 10.0067 13.2407L10.3733 13.0573C10.6627 12.9127 10.8487 12.6193 10.8553 12.296L10.8673 11.7373C10.8773 11.2627 11.2647 10.884 11.7393 10.884H12.2973C12.6727 10.884 13.006 10.6433 13.1247 10.2873L13.254 9.89867C13.3567 9.59133 13.2807 9.25333 13.0567 9.01933L12.67 8.61533C12.342 8.27267 12.348 7.73067 12.6833 7.39533L13.078 7.00067C13.3433 6.73533 13.4093 6.33 13.2413 5.994L13.058 5.62733C12.9133 5.338 12.62 5.152 12.2967 5.14533L11.738 5.13333C11.2633 5.12333 10.8847 4.736 10.8847 4.26133V3.70333C10.8847 3.328 10.644 2.99467 10.288 2.876ZM9.17855 9.17849C9.82942 8.52762 9.82942 7.47234 9.17855 6.82147C8.52768 6.17059 7.4724 6.17059 6.82153 6.82147C6.17066 7.47234 6.17066 8.52761 6.82153 9.17849C7.4724 9.82936 8.52768 9.82936 9.17855 9.17849Z" fill="#242729"/>
</svg>
