<svg width="16" height="16" viewBox="0 0 16 16" fill="none" xmlns="http://www.w3.org/2000/svg">
<path fill-rule="evenodd" clip-rule="evenodd" d="M5.83331 4.66667C5.83331 3.47014 6.80346 2.5 7.99998 2.5C9.1965 2.5 10.1666 3.47014 10.1666 4.66667V5.5H5.83331V4.66667ZM4.83331 5.5V4.66667C4.83331 2.91786 6.25117 1.5 7.99998 1.5C9.74879 1.5 11.1666 2.91786 11.1666 4.66667V5.5H11.3333C12.3461 5.5 13.1666 6.32052 13.1666 7.33333V12.6667C13.1666 13.6795 12.3461 14.5 11.3333 14.5H4.66665C3.65384 14.5 2.83331 13.6795 2.83331 12.6667V7.33333C2.83331 6.32052 3.65384 5.5 4.66665 5.5H4.83331ZM10.6666 6.5H5.33331H4.66665C4.20612 6.5 3.83331 6.87281 3.83331 7.33333V12.6667C3.83331 13.1272 4.20612 13.5 4.66665 13.5H11.3333C11.7938 13.5 12.1666 13.1272 12.1666 12.6667V7.33333C12.1666 6.87281 11.7938 6.5 11.3333 6.5H10.6666ZM8.70711 9.87379C8.64377 9.93713 8.57405 9.99019 8.50002 10.033V11.3934C8.50002 11.6695 8.27616 11.8934 8.00002 11.8934C7.72388 11.8934 7.50002 11.6695 7.50002 11.3934V10.033C7.42597 9.99021 7.35624 9.93714 7.29289 9.87379C6.90237 9.48327 6.90237 8.8501 7.29289 8.45958C7.68342 8.06906 8.31658 8.06906 8.70711 8.45958C9.09763 8.8501 9.09763 9.48327 8.70711 9.87379Z" fill="#242729"/>
</svg>
