<svg width="16" height="16" viewBox="0 0 16 16" fill="none" xmlns="http://www.w3.org/2000/svg">
<path fill-rule="evenodd" clip-rule="evenodd" d="M12.3022 2.64632C12.0095 2.3484 11.5307 2.34416 11.2328 2.63685C10.9349 2.92955 10.9306 3.40834 11.2233 3.70626L12.2658 4.7674C12.5585 5.06533 13.0373 5.06957 13.3352 4.77687C13.6332 4.48418 13.6374 4.00539 13.3447 3.70746L12.3022 2.64632ZM9.51787 4.4419L2.63387 11.3259C2.50854 11.4506 2.43854 11.6199 2.43854 11.7966V13.5799H4.22187C4.39854 13.5799 4.56787 13.5099 4.69254 13.3846L11.5772 6.50123C11.8372 6.24123 11.8372 5.81923 11.5772 5.55923L10.4599 4.4419C10.1999 4.1819 9.77787 4.1819 9.51787 4.4419Z" fill="#242729"/>
</svg>
