<svg width="16" height="16" viewBox="0 0 16 16" fill="none" xmlns="http://www.w3.org/2000/svg">
<path fill-rule="evenodd" clip-rule="evenodd" d="M3.16666 7.99996C3.16666 5.33058 5.33061 3.16663 7.99999 3.16663C10.6694 3.16663 12.8333 5.33058 12.8333 7.99996C12.8333 10.6693 10.6694 12.8333 7.99999 12.8333C5.33061 12.8333 3.16666 10.6693 3.16666 7.99996ZM7.99999 2.16663C4.77833 2.16663 2.16666 4.7783 2.16666 7.99996C2.16666 11.2216 4.77833 13.8333 7.99999 13.8333C11.2217 13.8333 13.8333 11.2216 13.8333 7.99996C13.8333 4.7783 11.2217 2.16663 7.99999 2.16663ZM10.3535 6.72729C10.5488 6.53202 10.5488 6.21544 10.3535 6.02018C10.1583 5.82492 9.8417 5.82492 9.64644 6.02018L6.35354 9.31307C6.15828 9.50834 6.15828 9.82492 6.35354 10.0202C6.5488 10.2154 6.86539 10.2154 7.06065 10.0202L10.3535 6.72729Z" fill="#242729"/>
</svg>
