<svg width="16" height="16" viewBox="0 0 16 16" fill="none" xmlns="http://www.w3.org/2000/svg">
<path fill-rule="evenodd" clip-rule="evenodd" d="M15 8.00001C15 11.866 11.866 15 8.00001 15C4.13401 15 1 11.866 1 8.00001C1 4.13401 4.13401 1 8.00001 1C11.866 1 15 4.13401 15 8.00001ZM8.77733 11.2674C8.77677 11.6966 8.42865 12.0441 7.99954 12.0439C7.57042 12.0437 7.22261 11.6959 7.22242 11.2668C7.22223 10.8377 7.56975 10.4895 7.99886 10.489C8.20541 10.4887 8.40357 10.5706 8.54962 10.7167C8.69567 10.8627 8.7776 11.0609 8.77733 11.2674ZM10.6152 6.08864C10.5293 4.70951 9.35612 3.65531 7.97993 3.71212C6.75864 3.67846 5.67962 4.50948 5.40273 5.70287C5.30911 6.10637 5.56031 6.50936 5.96381 6.60298C6.3673 6.6966 6.77029 6.4454 6.86391 6.0419C6.98055 5.53922 7.4384 5.19068 7.95399 5.21209C7.97817 5.21309 8.00239 5.21292 8.02656 5.21159C8.58727 5.18054 9.06907 5.60141 9.11636 6.15811C9.10832 6.46607 8.93821 6.74771 8.66791 6.89785C8.26335 7.12258 7.92217 7.43135 7.67685 7.77027C7.43943 8.09828 7.25001 8.51437 7.25001 8.9543C7.25001 9.36851 7.5858 9.7043 8.00001 9.7043C8.41422 9.7043 8.75001 9.36851 8.75001 8.9543C8.75001 8.9341 8.76776 8.82136 8.89195 8.64978C9.00824 8.48912 9.18311 8.32755 9.3963 8.20914C10.1495 7.79075 10.6167 6.99687 10.6167 6.13525C10.6167 6.1197 10.6162 6.10416 10.6152 6.08864Z" fill="#242729"/>
</svg>
