<svg width="16" height="16" viewBox="0 0 16 16" fill="none" xmlns="http://www.w3.org/2000/svg">
<path fill-rule="evenodd" clip-rule="evenodd" d="M7.99979 1.33337C5.47229 1.33337 3.41645 3.38921 3.41645 5.91671C3.41645 8.44421 5.47229 10.5 7.99979 10.5C10.5265 10.5 12.5831 8.44421 12.5831 5.91671C12.5831 3.38921 10.5265 1.33337 7.99979 1.33337ZM10.409 5.26837L9.61729 6.26004L9.70395 7.55587C9.71395 7.70004 9.64812 7.83921 9.52895 7.92337C9.45645 7.97421 9.37229 8.00004 9.28729 8.00004C9.23229 8.00004 9.17645 7.98921 9.12479 7.96671L7.99979 7.48921L6.87562 7.96671C6.74229 8.02337 6.58895 8.00754 6.47145 7.92337C6.35312 7.83921 6.28729 7.70004 6.29645 7.55587L6.38312 6.26004L5.59145 5.26837C5.50312 5.15837 5.47729 5.01087 5.52145 4.87671C5.56562 4.74254 5.67479 4.64087 5.81145 4.60504L6.99312 4.29587L7.64145 3.20421C7.79145 2.95087 8.20812 2.95087 8.35729 3.20421L9.00562 4.29587L10.1881 4.60504C10.324 4.64087 10.4331 4.74337 10.4781 4.87671C10.5231 5.01004 10.4965 5.15754 10.409 5.26837ZM3.31232 8.6192L1.38899 11.9584C1.30482 12.105 1.31732 12.2875 1.41982 12.4209C1.52232 12.5542 1.69482 12.6142 1.85816 12.5692L4.30482 11.9117L4.95566 14.3584C4.99899 14.5209 5.13649 14.6417 5.30316 14.6642C5.32149 14.6659 5.34066 14.6667 5.35816 14.6667C5.50566 14.6667 5.64399 14.5884 5.71899 14.4584L7.53816 11.31C5.73066 11.1567 4.17732 10.1125 3.31232 8.6192ZM12.6873 8.6192L14.6115 11.9584C14.6948 12.105 14.6832 12.2875 14.5798 12.42C14.4765 12.5534 14.3048 12.6134 14.1415 12.5684L11.6948 11.9109L11.044 14.3575C10.9998 14.52 10.8632 14.6409 10.6957 14.6634C10.6782 14.6659 10.659 14.6667 10.6415 14.6667C10.494 14.6667 10.3557 14.5884 10.2807 14.4584L8.4615 11.31C10.269 11.1567 11.8232 10.1125 12.6873 8.6192Z" fill="#242729"/>
</svg>
