<svg width="16" height="16" viewBox="0 0 16 16" fill="none" xmlns="http://www.w3.org/2000/svg">
<path d="M2.81334 7.26001V13.9267" stroke="#242729" stroke-linecap="round" stroke-linejoin="round"/>
<path d="M13.1867 7.26001V13.9267" stroke="#242729" stroke-linecap="round" stroke-linejoin="round"/>
<path d="M9.48134 13.9259V10.9633C9.48134 10.1453 8.81801 9.48193 8.00001 9.48193C7.18201 9.48193 6.51868 10.1453 6.51868 10.9633V13.9259" stroke="#242729" stroke-linecap="round" stroke-linejoin="round"/>
<path d="M1.33334 13.9267H14.6667" stroke="#242729" stroke-linecap="round" stroke-linejoin="round"/>
<path fill-rule="evenodd" clip-rule="evenodd" d="M2.86737 7.25931C1.73537 7.25131 0.997372 6.13064 1.48804 5.16464L2.63137 2.91331C2.89204 2.39997 3.44004 2.07397 4.04137 2.07397H11.9587C12.56 2.07397 13.108 2.39997 13.3687 2.91331L14.5127 5.16464C15.0034 6.13064 14.2654 7.25131 13.1334 7.25931C12.1887 7.25931 11.4227 6.61397 11.4227 5.81731V5.78531C11.4227 6.59931 10.6567 7.25931 9.71204 7.25931C8.76737 7.25931 8.00137 6.59931 8.00137 5.78531C8.00137 6.59931 7.23537 7.25931 6.29071 7.25931C5.34604 7.25931 4.58004 6.59931 4.58004 5.78531V5.81731C4.57804 6.61397 3.81204 7.25931 2.86737 7.25931Z" stroke="#242729" stroke-linecap="round" stroke-linejoin="round"/>
</svg>
