<svg width="16" height="16" viewBox="0 0 16 16" fill="none" xmlns="http://www.w3.org/2000/svg">
<path d="M13.3356 4.24839H2.66449" stroke="#242729" stroke-linecap="round" stroke-linejoin="round"/>
<path fill-rule="evenodd" clip-rule="evenodd" d="M6.12421 1.99744H9.87578C10.2902 1.99744 10.6261 2.33336 10.6261 2.74775V4.24837H5.3739V2.74775C5.3739 2.54875 5.45295 2.35791 5.59366 2.2172C5.73437 2.07649 5.92522 1.99744 6.12421 1.99744Z" stroke="#242729" stroke-linecap="round" stroke-linejoin="round"/>
<path fill-rule="evenodd" clip-rule="evenodd" d="M5.63817 14.0024H10.362C11.1462 14.0024 11.7981 13.3986 11.8582 12.6168L12.502 4.24829H3.49823L4.14196 12.6168C4.20211 13.3986 4.85404 14.0024 5.63817 14.0024ZM6.6662 10.8346C6.39006 10.8346 6.1662 11.0584 6.1662 11.3346C6.1662 11.6107 6.39006 11.8346 6.6662 11.8346H9.33398C9.61012 11.8346 9.83398 11.6107 9.83398 11.3346C9.83398 11.0584 9.61012 10.8346 9.33398 10.8346H6.6662Z" fill="#242729"/>
</svg>
