<svg width="32" height="32" viewBox="0 0 32 32" fill="none" xmlns="http://www.w3.org/2000/svg">
<path fill-rule="evenodd" clip-rule="evenodd" d="M21.3356 28.005H10.6644C6.98157 28.005 3.995 25.0184 3.995 21.3356V10.6644C3.995 6.98157 6.98157 3.995 10.6644 3.995H21.3356C25.0184 3.995 28.005 6.98157 28.005 10.6644V21.3356C28.005 25.0184 25.0184 28.005 21.3356 28.005Z" stroke="#242729" stroke-width="2.5" stroke-linecap="round" stroke-linejoin="round"/>
<path d="M15.9986 10.6644C15.8145 10.6644 15.6652 10.8138 15.6665 10.9979C15.6665 11.182 15.8159 11.3313 16 11.3313C16.184 11.3313 16.3334 11.182 16.3334 10.9979C16.3334 10.8138 16.184 10.6644 15.9986 10.6644" stroke="#242729" stroke-width="2.5" stroke-linecap="round" stroke-linejoin="round"/>
<path d="M16.3334 21.581V15.245H14.9995" stroke="#242729" stroke-width="2.5" stroke-linecap="round" stroke-linejoin="round"/>
</svg>
