<svg width="32" height="32" viewBox="0 0 32 32" fill="none" xmlns="http://www.w3.org/2000/svg">
<path d="M6.66275 26.6711L12.4311 20.9027" stroke="#242729" stroke-width="2.5" stroke-linecap="round" stroke-linejoin="round"/>
<path fill-rule="evenodd" clip-rule="evenodd" d="M15.1067 12.6734L18.2757 9.50432C18.6168 9.16948 18.7867 8.69736 18.737 8.22194L18.5064 6.2015C18.4687 5.8698 18.6452 5.55063 18.9462 5.40614C19.2471 5.26165 19.6065 5.32352 19.8418 5.56031L27.7737 13.4921C28.0104 13.7274 28.0723 14.0869 27.9278 14.3878C27.7833 14.6887 27.4642 14.8652 27.1325 14.8276L25.112 14.5969C24.6366 14.5472 24.1645 14.7171 23.8297 15.0582L20.6606 18.2273C20.3648 18.5206 20.1987 18.9201 20.1993 19.3367V24.8859C20.1983 25.5204 19.8156 26.092 19.2294 26.3347C18.6431 26.5774 17.9684 26.4435 17.5192 25.9953L7.34555 15.8124C6.8974 15.3633 6.76351 14.6886 7.00619 14.1023C7.24886 13.516 7.82044 13.1334 8.45494 13.1323H14.0042C14.4181 13.1317 14.8147 12.9666 15.1067 12.6734Z" stroke="#242729" stroke-width="2.5" stroke-linecap="round" stroke-linejoin="round"/>
</svg>
