<svg width="32" height="32" viewBox="0 0 32 32" fill="none" xmlns="http://www.w3.org/2000/svg">
<path d="M13.3733 6.66667H6" stroke="#242729" stroke-width="2.5" stroke-linecap="round" stroke-linejoin="round"/>
<path d="M17.9217 4.78105C18.9631 5.82245 18.9631 7.51089 17.9217 8.55229C16.8803 9.59369 15.1918 9.59369 14.1504 8.55229C13.109 7.51089 13.109 5.82245 14.1504 4.78105C15.1918 3.73965 16.8803 3.73965 17.9217 4.78105" stroke="#242729" stroke-width="2.5" stroke-linecap="round" stroke-linejoin="round"/>
<path d="M26.0001 6.66667H18.7068" stroke="#242729" stroke-width="2.5" stroke-linecap="round" stroke-linejoin="round"/>
<path d="M6 27.6667H26" stroke="#242729" stroke-width="2.5" stroke-linecap="round" stroke-linejoin="round"/>
<path d="M16.0402 9.33331L16.0002 27.6666" stroke="#242729" stroke-width="2.5" stroke-linecap="round" stroke-linejoin="round"/>
<path fill-rule="evenodd" clip-rule="evenodd" d="M11.7521 17.636C11.9041 17.876 11.9907 18.1574 11.9641 18.44C11.7414 20.8107 9.74675 22.6667 7.31741 22.6667C4.88941 22.6667 2.89475 20.812 2.67075 18.4414C2.64408 18.1587 2.73208 17.872 2.88541 17.632L7.31741 10.6667C7.31741 10.6667 10.8094 16.1534 11.7521 17.636V17.636Z" stroke="#242729" stroke-width="2.5" stroke-linecap="round" stroke-linejoin="round"/>
<path d="M11.92 18H2.71997" stroke="#242729" stroke-width="2.5" stroke-linecap="round" stroke-linejoin="round"/>
<path fill-rule="evenodd" clip-rule="evenodd" d="M29.1215 17.636C29.2735 17.876 29.3601 18.1574 29.3335 18.44C29.1108 20.8107 27.1161 22.6667 24.6868 22.6667C22.2588 22.6667 20.2641 20.812 20.0401 18.4414C20.0135 18.1587 20.1015 17.872 20.2548 17.632L24.6868 10.6667C24.6868 10.6667 28.1775 16.1534 29.1215 17.636Z" stroke="#242729" stroke-width="2.5" stroke-linecap="round" stroke-linejoin="round"/>
<path d="M29.2934 18H20.0801" stroke="#242729" stroke-width="2.5" stroke-linecap="round" stroke-linejoin="round"/>
</svg>
