<svg width="32" height="32" viewBox="0 0 32 32" fill="none" xmlns="http://www.w3.org/2000/svg">
<path d="M5.62663 14.52V27.8534" stroke="#242729" stroke-width="2.5" stroke-linecap="round" stroke-linejoin="round"/>
<path d="M26.3733 14.52V27.8534" stroke="#242729" stroke-width="2.5" stroke-linecap="round" stroke-linejoin="round"/>
<path d="M18.9626 27.852V21.9267C18.9626 20.2907 17.6359 18.964 15.9999 18.964C14.3639 18.964 13.0372 20.2907 13.0372 21.9267V27.852" stroke="#242729" stroke-width="2.5" stroke-linecap="round" stroke-linejoin="round"/>
<path d="M2.66663 27.8533H29.3333" stroke="#242729" stroke-width="2.5" stroke-linecap="round" stroke-linejoin="round"/>
<path fill-rule="evenodd" clip-rule="evenodd" d="M5.73456 14.5187C3.47056 14.5027 1.99456 12.2613 2.9759 10.3293L5.26256 5.82668C5.7839 4.80001 6.8799 4.14801 8.08256 4.14801H23.9172C25.1199 4.14801 26.2159 4.80001 26.7372 5.82668L29.0252 10.3293C30.0066 12.2613 28.5306 14.5027 26.2666 14.5187C24.3772 14.5187 22.8452 13.228 22.8452 11.6347V11.5707C22.8452 13.1987 21.3132 14.5187 19.4239 14.5187C17.5346 14.5187 16.0026 13.1987 16.0026 11.5707C16.0026 13.1987 14.4706 14.5187 12.5812 14.5187C10.6919 14.5187 9.1599 13.1987 9.1599 11.5707V11.6347C9.1559 13.228 7.6239 14.5187 5.73456 14.5187Z" stroke="#242729" stroke-width="2.5" stroke-linecap="round" stroke-linejoin="round"/>
</svg>
