<svg width="32" height="32" viewBox="0 0 32 32" fill="none" xmlns="http://www.w3.org/2000/svg">
<path d="M17.3339 11.9984H22.6694" stroke="#242729" stroke-width="2.5" stroke-linecap="round" stroke-linejoin="round"/>
<path d="M13.3322 28.005H10.6644C6.98101 28.005 3.995 25.019 3.995 21.3355V10.6644C3.995 6.98101 6.98101 3.995 10.6644 3.995H21.3355C25.019 3.995 28.005 6.98101 28.005 10.6644V13.3322" stroke="#242729" stroke-width="2.5" stroke-linecap="round" stroke-linejoin="round"/>
<path d="M9.33057 11.6329L10.5564 12.7373L13.0241 10.5151" stroke="#242729" stroke-width="2.5" stroke-linecap="round" stroke-linejoin="round"/>
<path d="M9.33057 18.3023L10.5564 19.4068L13.0241 17.1845" stroke="#242729" stroke-width="2.5" stroke-linecap="round" stroke-linejoin="round"/>
<path d="M26.7543 28.0889H19.9186C19.9447 27.257 20.6256 26.5904 21.463 26.5872H25.2099C26.0473 26.5904 26.7282 27.257 26.7543 28.0889Z" stroke="#242729" stroke-width="2.5" stroke-linecap="round" stroke-linejoin="round"/>
<path d="M24.7541 19.6682C24.7541 20.4512 24.1194 21.086 23.3364 21.086C22.5533 21.086 21.9186 20.4512 21.9186 19.6682C21.9186 18.8852 22.5533 18.2504 23.3364 18.2504C24.1194 18.2504 24.7541 18.8852 24.7541 19.6682Z" stroke="#242729" stroke-width="2.5" stroke-linecap="round" stroke-linejoin="round"/>
</svg>
