<svg width="32" height="32" viewBox="0 0 32 32" fill="none" xmlns="http://www.w3.org/2000/svg">
<path fill-rule="evenodd" clip-rule="evenodd" d="M19.6474 7.03927H12.3532C12.4837 5.64192 13.6598 4.54822 15.0912 4.54822H16.9094C18.3409 4.54822 19.5169 5.64192 19.6474 7.03927ZM24.2554 7.03927H22.1531C22.0181 4.26006 19.7221 2.04822 16.9094 2.04822H15.0912C12.2785 2.04822 9.98247 4.26006 9.84748 7.03927H7.74463C5.59798 7.03927 3.78835 8.64004 3.5264 10.7706L3.07483 14.4435C2.92325 15.6763 3.31769 16.8651 4.08334 17.748V23.6667C4.08334 26.0139 5.98614 27.9167 8.33335 27.9167H23.6667C26.0139 27.9167 27.9167 26.0139 27.9167 23.6667V17.748C28.6823 16.865 29.0767 15.6763 28.9252 14.4435L28.4736 10.7706C28.2116 8.64004 26.402 7.03927 24.2554 7.03927ZM25.4167 19.1756L17.1356 21.4718C16.3925 21.6778 15.6075 21.6778 14.8644 21.4718L6.58334 19.1757V23.6667C6.58334 24.6332 7.36685 25.4167 8.33335 25.4167H23.6667C24.6332 25.4167 25.4167 24.6332 25.4167 23.6667V19.1756ZM7.74463 9.53927C6.86072 9.53927 6.11558 10.1984 6.00771 11.0757L5.55614 14.7485C5.45038 15.6088 5.99025 16.4169 6.82547 16.6485L15.5324 19.0627C15.8384 19.1475 16.1616 19.1475 16.4676 19.0627L25.1745 16.6485C26.0097 16.4169 26.5496 15.6088 26.4439 14.7485L25.9923 11.0757C25.8844 10.1984 25.1393 9.53927 24.2554 9.53927H7.74463Z" fill="#242729"/>
</svg>
