<svg width="32" height="32" viewBox="0 0 32 32" fill="none" xmlns="http://www.w3.org/2000/svg">
<path fill-rule="evenodd" clip-rule="evenodd" d="M13.584 6.91741C14.9183 5.58311 17.0816 5.58311 18.4159 6.91741C19.7502 8.25171 19.7502 10.415 18.4159 11.7493C17.0816 13.0836 14.9183 13.0836 13.584 11.7493C12.2497 10.415 12.2497 8.25171 13.584 6.91741ZM11.8163 5.14964C14.1269 2.83903 17.8731 2.83903 20.1837 5.14964C22.4943 7.46025 22.4943 11.2065 20.1837 13.5171C17.8731 15.8277 14.1269 15.8277 11.8163 13.5171C9.50566 11.2065 9.50566 7.46025 11.8163 5.14964ZM16 16.7607C13.1198 16.7607 10.2281 17.4563 8.01375 18.7454C5.8106 20.028 4.08331 22.0348 4.08331 24.6667V26C4.08331 27.4264 5.24029 28.5833 6.66665 28.5833H25.3333C26.7597 28.5833 27.9166 27.4264 27.9166 26V24.6667C27.9166 22.0348 26.1894 20.028 23.9862 18.7454C21.7718 17.4563 18.8801 16.7607 16 16.7607ZM6.58331 24.6667C6.58331 23.2639 7.49069 21.9427 9.27154 20.906C11.0411 19.8758 13.4828 19.2607 16 19.2607C18.5172 19.2607 20.9588 19.8758 22.7284 20.906C24.5093 21.9427 25.4166 23.2639 25.4166 24.6667V26C25.4166 26.0457 25.379 26.0833 25.3333 26.0833H6.66665C6.621 26.0833 6.58331 26.0457 6.58331 26V24.6667Z" fill="#242729"/>
</svg>
