<svg width="24" height="24" viewBox="0 0 24 24" fill="none" xmlns="http://www.w3.org/2000/svg">
<path fill-rule="evenodd" clip-rule="evenodd" d="M11.592 9.16804C10.936 9.16804 9.914 8.40404 8.852 8.40404C7.44 8.40404 6.148 9.26704 5.42 10.533C3.956 13.075 5.043 16.831 6.471 18.897C7.172 19.903 7.998 21.035 9.094 20.999C10.145 20.954 10.54 20.316 11.816 20.316C13.083 20.316 13.442 20.999 14.556 20.972C15.688 20.954 16.407 19.948 17.098 18.933C17.898 17.765 18.23 16.633 18.248 16.57C18.221 16.561 16.047 15.726 16.02 13.21C16.002 11.108 17.736 10.102 17.817 10.057C16.829 8.61104 15.311 8.44904 14.781 8.41304C13.397 8.30504 12.239 9.16804 11.592 9.16804V9.16804Z" stroke="#242729" stroke-linecap="round" stroke-linejoin="round"/>
<path d="M13.6507 2.95439C14.5197 2.63087 15.0881 3.10787 14.9203 4.01981C14.7525 4.93174 13.9121 5.93328 13.0431 6.25679C12.1741 6.58032 11.6057 6.10332 11.7735 5.19138C11.9413 4.27945 12.7817 3.27791 13.6507 2.95439" stroke="#242729" stroke-linecap="round" stroke-linejoin="round"/>
</svg>
