<svg width="24" height="24" viewBox="0 0 24 24" fill="none" xmlns="http://www.w3.org/2000/svg">
<path fill-rule="evenodd" clip-rule="evenodd" d="M21 12C21 16.971 16.971 21 12 21C7.029 21 3 16.971 3 12C3 7.029 7.029 3 12 3C16.971 3 21 7.029 21 12ZM11.5 9.20711V16C11.5 16.2761 11.7239 16.5 12 16.5C12.2761 16.5 12.5 16.2761 12.5 16V9.20711L14.6464 11.3536C14.8417 11.5488 15.1583 11.5488 15.3536 11.3536C15.5488 11.1583 15.5488 10.8417 15.3536 10.6464L12.3536 7.64645C12.3056 7.59851 12.2504 7.56234 12.1914 7.53794C12.1333 7.51385 12.0697 7.5004 12.003 7.50001C12.002 7.5 12.001 7.5 12 7.5C11.999 7.5 11.998 7.5 11.997 7.50001C11.9303 7.5004 11.8667 7.51385 11.8086 7.53794C11.7496 7.56234 11.6944 7.59851 11.6464 7.64645L8.64645 10.6464C8.45118 10.8417 8.45118 11.1583 8.64645 11.3536C8.84171 11.5488 9.15829 11.5488 9.35355 11.3536L11.5 9.20711Z" fill="#242729"/>
</svg>
