<svg width="24" height="24" viewBox="0 0 24 24" fill="none" xmlns="http://www.w3.org/2000/svg">
<path d="M9.06249 4.63636H8.72727L8.66836 4.63882L8.52816 4.64205C7.09521 4.67473 6.32359 4.85246 5.52514 5.27947C4.71589 5.71226 4.0759 6.35226 3.64311 7.16151C3.16586 8.05389 3 8.91276 3 10.6989L3.0014 15.212C3.01832 16.8141 3.19097 17.6294 3.64311 18.4749C4.0759 19.2841 4.71589 19.9241 5.52514 20.3569C6.41752 20.8341 7.2764 21 9.06249 21L15.212 20.9986C16.8141 20.9817 17.6294 20.809 18.4749 20.3569C19.2841 19.9241 19.9241 19.2841 20.3569 18.4749C20.8341 17.5825 21 16.7236 21 14.9375V10.6989L20.9986 10.4244C20.9817 8.82226 20.809 8.00692 20.3569 7.16151C19.9241 6.35226 19.2841 5.71226 18.4749 5.27947L18.3341 5.20668C17.5833 4.83205 16.8205 4.67281 15.4718 4.64205L15.3308 4.63882L15.2727 4.63636H14.9375L14.8285 4.64207M13.6364 15.2727H7.09091M16.9091 12.1818H7.09091M12 3V7.90909" stroke="#242729" stroke-linecap="round"/>
</svg>
