<svg width="24" height="24" viewBox="0 0 24 24" fill="none" xmlns="http://www.w3.org/2000/svg">
<path d="M15.6445 8.99878V17.0021" stroke="#242729" stroke-linecap="round" stroke-linejoin="round"/>
<path d="M20.0033 17.0021V8.99878" stroke="#242729" stroke-linecap="round" stroke-linejoin="round"/>
<path d="M14.0008 20.0033H22.0042V19.0029L21.0038 17.0021H14.0008" stroke="#242729" stroke-linecap="round" stroke-linejoin="round"/>
<path fill-rule="evenodd" clip-rule="evenodd" d="M3.99667 8.99877H22.0042V5.92549L13.0004 1.99585L3.99667 5.92549V8.99877Z" stroke="#242729" stroke-linecap="round" stroke-linejoin="round"/>
<path d="M5.2712 17.7274L7.72222 15.2764" stroke="#242729" stroke-linecap="round" stroke-linejoin="round"/>
<path d="M8.12139 18.0576C8.14024 18.0768 8.14003 18.1077 8.12092 18.1266C8.1018 18.1456 8.07094 18.1456 8.05183 18.1266C8.03271 18.1077 8.0325 18.0768 8.05136 18.0576C8.06043 18.0479 8.07311 18.0424 8.08637 18.0424C8.09963 18.0424 8.11231 18.0479 8.12139 18.0576" stroke="#242729" stroke-linecap="round" stroke-linejoin="round"/>
<path fill-rule="evenodd" clip-rule="evenodd" d="M10.9996 16.5019C10.9996 18.9882 8.98403 21.0038 6.49771 21.0038C4.01139 21.0038 1.99583 18.9882 1.99583 16.5019C1.99583 14.0156 4.01139 12 6.49771 12C7.69225 11.9981 8.8384 12.4719 9.68307 13.3165C10.5277 14.1612 11.0014 15.3073 10.9996 16.5019Z" stroke="#242729" stroke-linecap="round" stroke-linejoin="round"/>
<path d="M4.87403 14.9462C4.85518 14.927 4.85539 14.8961 4.8745 14.8771C4.89362 14.8581 4.92448 14.8581 4.94359 14.8771C4.96271 14.8961 4.96292 14.927 4.94406 14.9462C4.93499 14.9559 4.92231 14.9614 4.90905 14.9614C4.89578 14.9614 4.88311 14.9559 4.87403 14.9462" stroke="#242729" stroke-linecap="round" stroke-linejoin="round"/>
</svg>
