<svg width="24" height="24" viewBox="0 0 24 24" fill="none" xmlns="http://www.w3.org/2000/svg">
<path d="M5.74675 14.7511C5.60871 14.7515 5.49706 14.8636 5.4973 15.0017C5.49754 15.1397 5.60957 15.2515 5.74762 15.2513C5.88566 15.2512 5.9975 15.1393 5.9975 15.0012C5.99721 14.863 5.88501 14.7511 5.74674 14.7511" stroke="#242729" stroke-linecap="round" stroke-linejoin="round"/>
<path d="M9.99916 13.5006C10.8279 13.5006 11.4998 14.1725 11.4998 15.0012C11.4998 15.83 10.8279 16.5019 9.99916 16.5019C9.17039 16.5019 8.49854 15.83 8.49854 15.0012C8.49854 14.1725 9.17039 13.5006 9.99916 13.5006" stroke="#242729" stroke-linecap="round" stroke-linejoin="round"/>
<path fill-rule="evenodd" clip-rule="evenodd" d="M17.0021 12V18.0025C17.0021 19.1075 16.1063 20.0033 15.0012 20.0033H4.99598C4.46547 20.0032 3.95675 19.7923 3.58172 19.4171C3.2067 19.0418 2.9961 18.533 2.99625 18.0025V11.9989C2.99639 11.4684 3.20727 10.9596 3.5825 10.5846C3.95773 10.2096 4.46657 9.999 4.99708 9.99915H15.0023C15.5329 9.99929 16.0416 10.2102 16.4166 10.5854C16.7916 10.9606 17.0022 11.4695 17.0021 12Z" stroke="#242729" stroke-linecap="round" stroke-linejoin="round"/>
<path d="M14.2516 15.2513C14.3896 15.251 14.5013 15.1389 14.501 15.0008C14.5008 14.8628 14.3888 14.751 14.2507 14.7511C14.1127 14.7513 14.0008 14.8632 14.0008 15.0012C14.0011 15.1395 14.1133 15.2514 14.2516 15.2513" stroke="#242729" stroke-linecap="round" stroke-linejoin="round"/>
<path d="M6.19553 9.99917L7.40635 5.48029L7.40666 5.47929C7.5441 4.96688 7.87946 4.53006 8.33897 4.26492C8.79848 3.99979 9.3445 3.92805 9.8569 4.0655L19.5201 6.65469L19.5211 6.655C20.0335 6.79244 20.4704 7.1278 20.7355 7.58732C21.0006 8.04683 21.0723 8.59285 20.9349 9.10525L19.3814 14.9032C19.1018 15.9418 18.0499 16.5724 17.0021 16.3296" stroke="#242729" stroke-linecap="round" stroke-linejoin="round"/>
</svg>
