<svg width="24" height="24" viewBox="0 0 24 24" fill="none" xmlns="http://www.w3.org/2000/svg">
<path d="M12 7.21897C11.9669 7.21897 11.9352 7.23217 11.9119 7.25565C11.8886 7.27914 11.8757 7.31095 11.876 7.34402C11.876 7.41308 11.9319 7.46907 12.001 7.46907C12.0701 7.46907 12.1261 7.41308 12.1261 7.34402C12.125 7.27502 12.069 7.2195 12 7.21897" stroke="#242729" stroke-linecap="round" stroke-linejoin="round"/>
<path fill-rule="evenodd" clip-rule="evenodd" d="M20.9757 10.3323H3.02425C2.88425 10.3325 2.74989 10.2771 2.65081 10.1782C2.55172 10.0793 2.49603 9.94506 2.49603 9.80506V7.82823C2.49636 7.39782 2.77195 7.01585 3.18032 6.87984L11.6659 4.05066C11.8828 3.97864 12.1172 3.97864 12.3341 4.05066L20.8197 6.87984C21.228 7.01585 21.5036 7.39782 21.504 7.82823V9.80506C21.504 9.94506 21.4483 10.0793 21.3492 10.1782C21.2501 10.2771 21.1157 10.3325 20.9757 10.3323Z" stroke="#242729" stroke-linecap="round" stroke-linejoin="round"/>
<path d="M3.99667 18.0025V10.3323" stroke="#242729" stroke-linecap="round" stroke-linejoin="round"/>
<path d="M20.0033 10.3323V18.0025" stroke="#242729" stroke-linecap="round" stroke-linejoin="round"/>
<path d="M7.99832 10.3323V18.0025" stroke="#242729" stroke-linecap="round" stroke-linejoin="round"/>
<path d="M12 10.3323V18.0025" stroke="#242729" stroke-linecap="round" stroke-linejoin="round"/>
<path d="M16.0017 10.3323V18.0025" stroke="#242729" stroke-linecap="round" stroke-linejoin="round"/>
<path fill-rule="evenodd" clip-rule="evenodd" d="M20.3855 18.0024H3.61452C3.2357 18.0026 2.88949 18.2168 2.72015 18.5557L2.10189 19.7922C2.03208 19.9309 1.99585 20.0841 1.99585 20.2394V21.0037H22.0042V20.2394C22.0042 20.0841 21.968 19.9309 21.8981 19.7922L21.2799 18.5557C21.1105 18.2168 20.7643 18.0026 20.3855 18.0024Z" stroke="#242729" stroke-linecap="round" stroke-linejoin="round"/>
<path d="M23.0046 21.0037H0.995422" stroke="#242729" stroke-linecap="round" stroke-linejoin="round"/>
</svg>
