<svg width="24" height="24" viewBox="0 0 24 24" fill="none" xmlns="http://www.w3.org/2000/svg">
<path d="M12.0353 3C8.55841 3 5.73985 5.76435 5.73985 9.17435V13.0996C5.73985 13.6433 5.36854 14.1167 4.84051 14.2461C4.31248 14.3756 3.94116 14.849 3.94116 15.3926V15.6299C3.94116 16.4489 4.60508 17.1128 5.42407 17.1128H18.6465C19.4655 17.1128 20.1294 16.4489 20.1294 15.6299V15.3926C20.1294 14.849 19.7581 14.3756 19.23 14.2461C18.702 14.1167 18.3307 13.6433 18.3307 13.0996V9.17435C18.3307 5.76435 15.5121 3 12.0353 3Z" stroke="#242729"/>
<path d="M12.0352 20.2C13.7737 20.2 15.1829 19.0942 15.1829 17.7302C15.1829 17.3556 14.8304 17.1128 14.4558 17.1128H9.61466C9.23999 17.1128 8.88751 17.3556 8.88751 17.7302C8.88751 19.0942 10.2968 20.2 12.0352 20.2Z" stroke="#242729"/>
</svg>
