<svg width="24" height="24" viewBox="0 0 24 24" fill="none" xmlns="http://www.w3.org/2000/svg">
<path fill-rule="evenodd" clip-rule="evenodd" d="M5.73985 9.17435C5.73985 5.76435 8.55841 3 12.0353 3C15.5121 3 18.3307 5.76435 18.3307 9.17435V13.0996C18.3307 13.6433 18.702 14.1167 19.23 14.2461C19.7581 14.3756 20.1294 14.849 20.1294 15.3926V15.6299C20.1294 16.4489 19.4655 17.1128 18.6465 17.1128H5.42407C4.60508 17.1128 3.94116 16.4489 3.94116 15.6299V15.3926C3.94116 14.849 4.31248 14.3756 4.84051 14.2461C5.36854 14.1167 5.73985 13.6433 5.73985 13.0996V9.17435ZM15.1829 18.7302C15.1829 20.0942 13.7737 21.2 12.0352 21.2C10.2968 21.2 8.88751 20.0942 8.88751 18.7302C8.88751 18.3556 9.23999 18.1128 9.61466 18.1128H14.4558C14.8305 18.1128 15.1829 18.3556 15.1829 18.7302Z" fill="#242729"/>
</svg>
