<svg width="24" height="24" viewBox="0 0 24 24" fill="none" xmlns="http://www.w3.org/2000/svg">
<path d="M19.5165 9.625H20.1428C20.1476 9.68062 20.15 9.73655 20.15 9.79265V17.5824C20.15 19.399 18.6124 20.9 16.6797 20.9H7.47035C5.53757 20.9 4 19.399 4 17.5824V5.81765C4 4.00099 5.53757 2.5 7.47035 2.5H13.391C14.0307 2.5 14.6337 2.77112 15.0412 3.23442L19.6455 8.46993C19.7242 8.55944 19.7942 8.65456 19.8552 8.75411L15.396 3.81961L14.525 2.85582V4.15485V7.95C14.525 8.87508 15.2749 9.625 16.2 9.625H19.5165Z" stroke="#242729"/>
</svg>
