<svg width="24" height="24" viewBox="0 0 24 24" fill="none" xmlns="http://www.w3.org/2000/svg">
<path fill-rule="evenodd" clip-rule="evenodd" d="M5.9975 4.99713H7.99834C8.55085 4.99713 8.99875 5.44503 8.99875 5.99755V7.99838H4.99709V5.99755C4.99709 5.44503 5.44499 4.99713 5.9975 4.99713Z" stroke="#242729" stroke-linecap="round" stroke-linejoin="round"/>
<path d="M6.99792 2.99628V4.99711" stroke="#242729" stroke-linecap="round" stroke-linejoin="round"/>
<path d="M2.99625 21.0038V8.99877C2.99625 8.44625 3.44416 7.99835 3.99667 7.99835H9.99917C10.5517 7.99835 10.9996 8.44625 10.9996 8.99877V12" stroke="#242729" stroke-linecap="round" stroke-linejoin="round"/>
<path d="M14.0008 12V4.99712C14.001 4.66909 14.1619 4.36196 14.4315 4.17516C14.7012 3.98835 15.0452 3.94559 15.3524 4.06073L20.3545 5.93651C20.7452 6.08298 21.004 6.4566 21.0037 6.8739V21.0038" stroke="#242729" stroke-linecap="round" stroke-linejoin="round"/>
<path d="M7.99834 21.0037V13.0004C7.99834 12.4479 8.44624 12 8.99875 12H15.0013C15.5538 12 16.0017 12.4479 16.0017 13.0004V21.0037" stroke="#242729" stroke-linecap="round" stroke-linejoin="round"/>
<path d="M10.4994 17.7024H13.5006" stroke="#242729" stroke-linecap="round" stroke-linejoin="round"/>
<path d="M10.4994 15.0013H13.5006" stroke="#242729" stroke-linecap="round" stroke-linejoin="round"/>
<path d="M22.0042 21.0037H1.99583" stroke="#242729" stroke-linecap="round" stroke-linejoin="round"/>
</svg>
