<svg width="24" height="24" viewBox="0 0 24 24" fill="none" xmlns="http://www.w3.org/2000/svg">
<path fill-rule="evenodd" clip-rule="evenodd" d="M8 2.5C7.17186 2.5 6.5 3.17186 6.5 4V8.5H3C2.17186 8.5 1.5 9.17186 1.5 10V20.5H1C0.723858 20.5 0.5 20.7239 0.5 21C0.5 21.2761 0.723858 21.5 1 21.5H2H7H10.5H13.5H17H22H23C23.2761 21.5 23.5 21.2761 23.5 21C23.5 20.7239 23.2761 20.5 23 20.5H22.5V10C22.5 9.17186 21.8281 8.5 21 8.5H17.5V4C17.5 3.17186 16.8281 2.5 16 2.5H8ZM21.5 20.5V10C21.5 9.72414 21.2759 9.5 21 9.5H17.5V13H19C19.2761 13 19.5 13.2239 19.5 13.5C19.5 13.7761 19.2761 14 19 14H17.5V16.5H19C19.2761 16.5 19.5 16.7239 19.5 17C19.5 17.2761 19.2761 17.5 19 17.5H17.5V20.5H21.5ZM16.5 20.5V17V13.5V9V4C16.5 3.72414 16.2759 3.5 16 3.5H8C7.72414 3.5 7.5 3.72414 7.5 4V9V13.5V17V20.5H10V17.5H9.5C9.22386 17.5 9 17.2761 9 17C9 16.7239 9.22386 16.5 9.5 16.5H10.5H13.5H14.5C14.7761 16.5 15 16.7239 15 17C15 17.2761 14.7761 17.5 14.5 17.5H14V20.5H16.5ZM13 20.5V17.5H11V20.5H13ZM6.5 20.5V17.5H5C4.72386 17.5 4.5 17.2761 4.5 17C4.5 16.7239 4.72386 16.5 5 16.5H6.5V14H5C4.72386 14 4.5 13.7761 4.5 13.5C4.5 13.2239 4.72386 13 5 13H6.5V9.5H3C2.72414 9.5 2.5 9.72414 2.5 10V20.5H6.5ZM9.5 10.5C9.5 10.2239 9.72386 10 10 10H14C14.2761 10 14.5 10.2239 14.5 10.5C14.5 10.7761 14.2761 11 14 11H10C9.72386 11 9.5 10.7761 9.5 10.5ZM10 13C9.72386 13 9.5 13.2239 9.5 13.5C9.5 13.7761 9.72386 14 10 14H14C14.2761 14 14.5 13.7761 14.5 13.5C14.5 13.2239 14.2761 13 14 13H10ZM9.5 7.5C9.5 7.22386 9.72386 7 10 7H14C14.2761 7 14.5 7.22386 14.5 7.5C14.5 7.77614 14.2761 8 14 8H10C9.72386 8 9.5 7.77614 9.5 7.5Z" fill="#242729"/>
</svg>
