<svg width="24" height="24" viewBox="0 0 24 24" fill="none" xmlns="http://www.w3.org/2000/svg">
<path d="M12 21.75C9.239 21.75 7 19.511 7 16.75C7 13.989 9.239 11.75 12 11.75C14.762 11.75 17 13.989 17 16.75C17 19.511 14.762 21.75 12 21.75" stroke="#242729" stroke-linecap="round" stroke-linejoin="round"/>
<path d="M14.222 15.639L11.444 18.417L9.778 16.75" stroke="#242729" stroke-linecap="round" stroke-linejoin="round"/>
<path d="M17 16.75H19.5C20.605 16.75 21.5 15.855 21.5 14.75V5.75C21.5 4.645 20.605 3.75 19.5 3.75H4.5C3.395 3.75 2.5 4.645 2.5 5.75V14.75C2.5 15.855 3.395 16.75 4.5 16.75H7" stroke="#242729" stroke-linecap="round" stroke-linejoin="round"/>
<path d="M2.5 7.59998H21.5" stroke="#242729" stroke-linecap="round" stroke-linejoin="round"/>
</svg>
