<svg width="24" height="24" viewBox="0 0 24 24" fill="none" xmlns="http://www.w3.org/2000/svg">
<path d="M14 15.98V16.99" stroke="#242729" stroke-linecap="round" stroke-linejoin="round"/>
<path d="M10 15.98V16.99" stroke="#242729" stroke-linecap="round" stroke-linejoin="round"/>
<path fill-rule="evenodd" clip-rule="evenodd" d="M20 12H3.99997C3.44797 12 2.99997 11.552 2.99997 11V9C2.99997 8.448 3.44797 8 3.99997 8H20C20.552 8 21 8.448 21 9V11C21 11.552 20.552 12 20 12Z" stroke="#242729" stroke-linecap="round" stroke-linejoin="round"/>
<path d="M14.04 3.03003L17 7.97004" stroke="#242729" stroke-linecap="round" stroke-linejoin="round"/>
<path d="M9.96 3.03003L7 7.97004" stroke="#242729" stroke-linecap="round" stroke-linejoin="round"/>
<path d="M19.758 12L18.071 19.789C17.922 20.479 17.311 20.971 16.605 20.971H7.395C6.689 20.971 6.079 20.479 5.929 19.789L4.242 12" stroke="#242729" stroke-linecap="round" stroke-linejoin="round"/>
</svg>
