<svg width="24" height="24" viewBox="0 0 24 24" fill="none" xmlns="http://www.w3.org/2000/svg">
<path fill-rule="evenodd" clip-rule="evenodd" d="M9 6.5H6C5.448 6.5 5 6.052 5 5.5V4.5C5 3.948 5.448 3.5 6 3.5H9C9.552 3.5 10 3.948 10 4.5V5.5C10 6.052 9.552 6.5 9 6.5Z" stroke="#242729" stroke-linecap="round" stroke-linejoin="round"/>
<path d="M7.5 6.5V9" stroke="#242729" stroke-linecap="round" stroke-linejoin="round"/>
<path d="M13 9V5H17V9" stroke="#242729" stroke-linecap="round" stroke-linejoin="round"/>
<path d="M20.98 17H3.02" stroke="#242729" stroke-linecap="round" stroke-linejoin="round"/>
<path fill-rule="evenodd" clip-rule="evenodd" d="M20.94 16.761L19.189 9.757C19.078 9.312 18.678 9 18.219 9H5.781C5.322 9 4.922 9.312 4.811 9.757L3.06 16.761C3.02 16.92 3 17.083 3 17.246V20C3 20.552 3.448 21 4 21H20C20.552 21 21 20.552 21 20V17.246C21 17.083 20.98 16.92 20.94 16.761Z" stroke="#242729" stroke-linecap="round" stroke-linejoin="round"/>
<path d="M15.5 12H16.5" stroke="#242729" stroke-linecap="round" stroke-linejoin="round"/>
<path d="M7.5 12H8.5" stroke="#242729" stroke-linecap="round" stroke-linejoin="round"/>
<path d="M11.5 12H12.5" stroke="#242729" stroke-linecap="round" stroke-linejoin="round"/>
<path d="M13.5 14H14.5" stroke="#242729" stroke-linecap="round" stroke-linejoin="round"/>
<path d="M9.5 14H10.5" stroke="#242729" stroke-linecap="round" stroke-linejoin="round"/>
</svg>
