<svg width="24" height="24" viewBox="0 0 24 24" fill="none" xmlns="http://www.w3.org/2000/svg">
<path d="M18.0215 12.019L19.7523 10.2883C20.8587 9.21488 21.3009 7.62858 20.9095 6.13754C20.518 4.6465 19.3535 3.48204 17.8625 3.09058C16.3715 2.69911 14.7852 3.14136 13.7117 4.24779L10.0102 7.94933C9.20881 8.75016 8.75854 9.83665 8.75854 10.9696C8.75854 12.1025 9.20881 13.189 10.0102 13.9898L9.9992 14.0009C10.344 14.3391 10.7443 14.6155 11.1827 14.8182" stroke="#242729" stroke-linecap="round" stroke-linejoin="round"/>
<path d="M12.8064 9.19183C13.2448 9.39485 13.6451 9.67165 13.9898 10.0102C14.7912 10.811 15.2415 11.8975 15.2415 13.0304C15.2415 14.1634 14.7912 15.2499 13.9898 16.0507L10.2883 19.7522C8.61311 21.3775 5.94357 21.3573 4.29317 19.7069C2.64276 18.0564 2.62256 15.3869 4.24779 13.7117L5.97851 11.981" stroke="#242729" stroke-linecap="round" stroke-linejoin="round"/>
</svg>
