<svg width="24" height="24" viewBox="0 0 24 24" fill="none" xmlns="http://www.w3.org/2000/svg">
<path d="M13.366 17.5H13.1618L13.016 17.643L9.55492 21.0362C9.13083 21.4518 8.46621 21.4725 8.0187 21.1026L7.92113 21.0121C7.71519 20.7979 7.6 20.5123 7.6 20.2149V18V17.5041L7.1041 17.5L6.85509 17.498C5.99254 17.4833 5.54165 17.3871 5.11723 17.1833L4.98597 17.1165C4.5109 16.8614 4.13558 16.4854 3.88119 16.0097C3.61003 15.5027 3.5 15.0103 3.5 13.8951V8.10486C3.5 6.98972 3.61003 6.49733 3.88119 5.9903C4.13635 5.51319 4.51319 5.13635 4.9903 4.88119C5.49733 4.61003 5.98972 4.5 7.10486 4.5H16.8951C18.0103 4.5 18.5027 4.61003 19.0097 4.88119C19.4868 5.13635 19.8636 5.51319 20.1188 5.9903C20.39 6.49733 20.5 6.98972 20.5 8.10486V13.8951C20.5 15.0103 20.39 15.5027 20.1188 16.0097C19.8636 16.4868 19.4868 16.8636 19.0097 17.1188C18.5027 17.39 18.0103 17.5 16.8951 17.5H13.366Z" stroke="#242729"/>
</svg>
