<svg width="24" height="24" viewBox="0 0 24 24" fill="none" xmlns="http://www.w3.org/2000/svg">
<path d="M7.10486 4H16.8951C18.047 4 18.6343 4.1134 19.2455 4.44028C19.8097 4.74205 20.258 5.19025 20.5597 5.7545C20.8866 6.36572 21 6.95297 21 8.10486V13.8951C21 15.047 20.8866 15.6343 20.5597 16.2455C20.258 16.8097 19.8097 17.258 19.2455 17.5597C18.6343 17.8866 18.047 18 16.8951 18H13.366L9.90488 21.3933C9.29233 21.9937 8.33091 22.0196 7.68817 21.478L7.57155 21.3698C7.2693 21.0614 7.1 20.6467 7.1 20.2149V18L6.84879 17.9979C5.94467 17.9827 5.4124 17.8807 4.8954 17.6314L4.7545 17.5597C4.19025 17.258 3.74205 16.8097 3.44028 16.2455C3.1134 15.6343 3 15.047 3 13.8951V8.10486C3 6.95297 3.1134 6.36572 3.44028 5.7545C3.74205 5.19025 4.19025 4.74205 4.7545 4.44028C5.36572 4.1134 5.95297 4 7.10486 4Z" fill="#242729"/>
</svg>
