<svg width="24" height="24" viewBox="0 0 24 24" fill="none" xmlns="http://www.w3.org/2000/svg">
<path d="M15.8906 10.8525C15.6115 11.2168 15.1819 11.4344 14.7231 11.4438C14.2653 11.4318 13.837 11.2147 13.5566 10.8525" stroke="#242729" stroke-linecap="round" stroke-linejoin="round"/>
<path d="M10.4434 10.8525C10.1645 11.2165 9.73531 11.4341 9.27687 11.4438C8.81872 11.4318 8.39015 11.2148 8.10938 10.8525" stroke="#242729" stroke-linecap="round" stroke-linejoin="round"/>
<path fill-rule="evenodd" clip-rule="evenodd" d="M12 20.3365C15.7545 20.3347 19.0441 17.8225 20.0343 14.2009C21.1561 14.0787 22.0058 13.1314 22.0058 12.003C22.0058 10.8746 21.1561 9.9273 20.0343 9.80509C19.0467 6.18158 15.7557 3.6676 12 3.6676C8.24429 3.6676 4.95334 6.18158 3.96565 9.80509C2.84391 9.9273 1.99419 10.8746 1.99419 12.003C1.99419 13.1314 2.84391 14.0787 3.96565 14.2009C4.95588 17.8225 8.24553 20.3347 12 20.3365Z" stroke="#242729" stroke-linecap="round" stroke-linejoin="round"/>
<path d="M14.2229 15.0082C12.9493 16.1194 11.0507 16.1194 9.77707 15.0082" stroke="#242729" stroke-linecap="round" stroke-linejoin="round"/>
<path d="M10.8885 7.18898C11.2114 7.42452 11.6003 7.55229 12 7.55413C13.0572 7.53016 13.9017 6.66627 13.9017 5.60882C13.9017 4.55137 13.0572 3.68749 12 3.66351" stroke="#242729" stroke-linecap="round" stroke-linejoin="round"/>
</svg>
