<svg width="24" height="24" viewBox="0 0 24 24" fill="none" xmlns="http://www.w3.org/2000/svg">
<ellipse cx="8.99875" cy="9.99915" rx="6.0025" ry="2.50104" stroke="#242729" stroke-linecap="round" stroke-linejoin="round"/>
<path d="M15.0012 13.5006C15.0012 14.8819 12.3138 16.0017 8.99875 16.0017C5.68366 16.0017 2.99625 14.8819 2.99625 13.5006" stroke="#242729" stroke-linecap="round" stroke-linejoin="round"/>
<path d="M21.0038 9.99915C21.0038 11.3804 18.3163 12.5002 15.0013 12.5002" stroke="#242729" stroke-linecap="round" stroke-linejoin="round"/>
<path d="M15.0012 9.99915V17.5023C15.0012 18.8836 12.3138 20.0033 8.99875 20.0033C5.68366 20.0033 2.99625 18.8836 2.99625 17.5023V9.99915" stroke="#242729" stroke-linecap="round" stroke-linejoin="round"/>
<path d="M21.0038 6.49768V14.0008C21.0038 15.3821 18.3163 16.5018 15.0013 16.5018" stroke="#242729" stroke-linecap="round" stroke-linejoin="round"/>
<path d="M9.49896 7.50811C9.20197 7.25317 9.0214 6.88843 8.99875 6.49768C8.99875 5.11711 11.6899 3.99664 15.0012 3.99664C18.3126 3.99664 21.0037 5.11711 21.0037 6.49768C21.0037 7.87826 18.3126 8.99873 15.0012 8.99873C14.8312 8.99873 14.6611 8.99873 14.501 8.98872" stroke="#242729" stroke-linecap="round" stroke-linejoin="round"/>
</svg>
