<svg width="24" height="24" viewBox="0 0 24 24" fill="none" xmlns="http://www.w3.org/2000/svg">
<path d="M16.0016 9.99921H18.0025C19.1075 9.99921 20.0033 10.895 20.0033 12V19.003C20.0033 20.108 19.1075 21.0038 18.0025 21.0038H9.99912C8.89409 21.0038 7.99829 20.108 7.99829 19.003V17.0021" stroke="#242729" stroke-linecap="round" stroke-linejoin="round"/>
<path d="M7.49811 10.6875L9.99915 13.1885L12.5002 10.6875" stroke="#242729" stroke-linecap="round" stroke-linejoin="round"/>
<path d="M9.99917 2.99628V13.0004" stroke="#242729" stroke-linecap="round" stroke-linejoin="round"/>
<path d="M13.0004 6.99792H14.0008C15.1058 6.99792 16.0016 7.89373 16.0016 8.99876V15.0013C16.0016 16.1063 15.1058 17.0021 14.0008 17.0021H5.99748C4.89245 17.0021 3.99664 16.1063 3.99664 15.0013V8.99876C3.99664 7.89373 4.89245 6.99792 5.99748 6.99792H6.99789" stroke="#242729" stroke-linecap="round" stroke-linejoin="round"/>
</svg>
