<svg width="24" height="24" viewBox="0 0 24 24" fill="none" xmlns="http://www.w3.org/2000/svg">
<path d="M20.7727 14.0008C19.8797 17.9187 16.4986 20.7705 12.4863 20.9902C8.47401 21.2099 4.80182 18.7443 3.4864 14.9473C2.17098 11.1504 3.5308 6.94148 6.81909 4.63193C10.1074 2.32238 14.528 2.47136 17.6534 4.99708" stroke="#242729" stroke-linecap="round" stroke-linejoin="round"/>
<path d="M21.0038 8.00031L18.0025 10.9976" stroke="#242729" stroke-linecap="round" stroke-linejoin="round"/>
<path d="M18.0045 7.99835L21.0017 10.9996" stroke="#242729" stroke-linecap="round" stroke-linejoin="round"/>
<path d="M12 11.6689V8.3985" stroke="#242729" stroke-width="2" stroke-linecap="round" stroke-linejoin="round"/>
<path d="M12 15.2794C11.9572 15.2793 11.9162 15.2965 11.8861 15.3269C11.856 15.3574 11.8394 15.3986 11.8399 15.4414C11.8415 15.5291 11.9123 15.5999 12 15.6015C12.0895 15.6015 12.1621 15.5289 12.1621 15.4394C12.1621 15.3499 12.0895 15.2773 12 15.2773" stroke="#242729" stroke-width="2" stroke-linecap="round" stroke-linejoin="round"/>
</svg>
