<svg width="24" height="24" viewBox="0 0 24 24" fill="none" xmlns="http://www.w3.org/2000/svg">
<path d="M20.0033 7.99836H16.0017C15.4492 7.99836 15.0013 7.55046 15.0013 6.99794V2.99628" stroke="#242729" stroke-linecap="round" stroke-linejoin="round"/>
<path d="M5.9975 7.99836V4.99711C5.9975 3.89208 6.8933 2.99628 7.99833 2.99628H15.1733C15.7039 2.99628 16.2128 3.20727 16.5879 3.58252L19.4171 6.4117C19.7923 6.78684 20.0033 7.29568 20.0033 7.82629V19.0029C20.0033 20.108 19.1075 21.0038 18.0025 21.0038H7.99833C6.8933 21.0038 5.9975 20.108 5.9975 19.0029V18.0025" stroke="#242729" stroke-linecap="round" stroke-linejoin="round"/>
<path d="M9.56598 14.7512L6.56473 11.2497" stroke="#242729" stroke-linecap="round" stroke-linejoin="round"/>
<path d="M6.56473 14.7512L9.56598 11.2497" stroke="#242729" stroke-linecap="round" stroke-linejoin="round"/>
<rect x="2.99625" y="7.99835" width="10.0042" height="10.0042" rx="3" stroke="#242729" stroke-linecap="round" stroke-linejoin="round"/>
</svg>
