<svg width="24" height="24" viewBox="0 0 24 24" fill="none" xmlns="http://www.w3.org/2000/svg">
<path d="M16.0017 9.99921H18.0025C19.1075 9.99921 20.0034 10.895 20.0034 12V19.003C20.0034 20.108 19.1075 21.0038 18.0025 21.0038H9.99919C8.89416 21.0038 7.99835 20.108 7.99835 19.003V17.0021" stroke="#242729" stroke-linecap="round" stroke-linejoin="round"/>
<path d="M12.5002 4.49689L9.99918 1.99585L7.49814 4.49689" stroke="#242729" stroke-linecap="round" stroke-linejoin="round"/>
<path d="M9.99917 10.9996V1.99585" stroke="#242729" stroke-linecap="round" stroke-linejoin="round"/>
<path d="M13.0004 6.99792H14.0008C15.1059 6.99792 16.0017 7.89373 16.0017 8.99876V15.0013C16.0017 16.1063 15.1059 17.0021 14.0008 17.0021H5.99751C4.89248 17.0021 3.99667 16.1063 3.99667 15.0013V8.99876C3.99667 7.89373 4.89248 6.99792 5.99751 6.99792H6.99792" stroke="#242729" stroke-linecap="round" stroke-linejoin="round"/>
</svg>
