<svg width="24" height="24" viewBox="0 0 24 24" fill="none" xmlns="http://www.w3.org/2000/svg">
<path fill-rule="evenodd" clip-rule="evenodd" d="M3.13502 13.998C2.95402 13.693 2.95402 13.307 3.13502 13.002C5.04002 9.779 8.52002 7 12 7C15.48 7 18.959 9.779 20.864 13.001C21.045 13.307 21.045 13.694 20.864 14C18.959 17.221 15.48 20 12 20C8.52002 20 5.04002 17.221 3.13502 13.998Z" stroke="#242729" stroke-linecap="round" stroke-linejoin="round"/>
<path d="M14.121 11.379C15.293 12.551 15.293 14.45 14.121 15.622C12.949 16.794 11.05 16.794 9.87802 15.622C8.70602 14.45 8.70602 12.551 9.87802 11.379C11.05 10.207 12.95 10.207 14.121 11.379" stroke="#242729" stroke-linecap="round" stroke-linejoin="round"/>
<path d="M12 1.5V4" stroke="#242729" stroke-linecap="round" stroke-linejoin="round"/>
<path d="M5.00002 3.5L6.68002 5.5" stroke="#242729" stroke-linecap="round" stroke-linejoin="round"/>
<path d="M19 3.5L17.32 5.5" stroke="#242729" stroke-linecap="round" stroke-linejoin="round"/>
</svg>
