<svg width="24" height="24" viewBox="0 0 24 24" fill="none" xmlns="http://www.w3.org/2000/svg">
<path d="M8.99875 2.99628H9.99917C11.1042 2.99628 12 3.89208 12 4.99711C12 3.89208 12.8958 2.99628 14.0008 2.99628H15.0012" stroke="#242729" stroke-linecap="round" stroke-linejoin="round"/>
<path d="M12 20.0034V4.99713" stroke="#242729" stroke-linecap="round" stroke-linejoin="round"/>
<path d="M15.0012 21.0038H14.0008C12.8958 21.0038 12 20.108 12 19.0029C12 20.108 11.1042 21.0038 9.99917 21.0038H8.99875" stroke="#242729" stroke-linecap="round" stroke-linejoin="round"/>
<path d="M8.99875 18.0025H4.99708C3.89205 18.0025 2.99625 17.1067 2.99625 16.0017V7.99833C2.99625 6.8933 3.89205 5.9975 4.99708 5.9975H8.99875" stroke="#242729" stroke-linecap="round" stroke-linejoin="round"/>
<path d="M15.0013 18.0025H19.0029C20.1079 18.0025 21.0038 17.1067 21.0038 16.0017V7.99833C21.0038 6.8933 20.1079 5.9975 19.0029 5.9975H15.0013" stroke="#242729" stroke-linecap="round" stroke-linejoin="round"/>
</svg>
