<svg width="24" height="24" viewBox="0 0 24 24" fill="none" xmlns="http://www.w3.org/2000/svg">
<path fill-rule="evenodd" clip-rule="evenodd" d="M19.0029 5.44726H15.0303C14.6991 5.44744 14.3893 5.28375 14.2029 5.01008L13.1315 3.43342C12.9442 3.15857 12.6327 2.99473 12.3001 2.99623H8.99874C7.89371 2.99623 6.99791 3.89204 6.99791 4.99707V14.0008C6.99791 15.1058 7.89371 16.0017 8.99874 16.0017H19.0029C20.1079 16.0017 21.0037 15.1058 21.0037 14.0008V7.44809C21.0037 6.34306 20.1079 5.44726 19.0029 5.44726Z" stroke="#242729" stroke-linecap="round" stroke-linejoin="round"/>
<path d="M6.99791 6.99792H4.99708C3.89205 6.99792 2.99625 7.89373 2.99625 8.99876V19.0029C2.99625 20.108 3.89205 21.0038 4.99708 21.0038H16.752C17.857 21.0038 18.7528 20.108 18.7528 19.0029V16.0017" stroke="#242729" stroke-linecap="round" stroke-linejoin="round"/>
</svg>
