<svg width="24" height="24" viewBox="0 0 24 24" fill="none" xmlns="http://www.w3.org/2000/svg">
<path d="M7.99832 14.0009V21.0038" stroke="#242729" stroke-linecap="round" stroke-linejoin="round"/>
<path d="M12 14.0009V21.0038" stroke="#242729" stroke-linecap="round" stroke-linejoin="round"/>
<path d="M16.0016 14.0009V21.0038" stroke="#242729" stroke-linecap="round" stroke-linejoin="round"/>
<path d="M22.0042 21.0037H1.99582" stroke="#242729" stroke-linecap="round" stroke-linejoin="round"/>
<path d="M12 6.99793V2.49606C12 2.2198 12.224 1.99585 12.5002 1.99585H15.5015C15.7777 1.99585 16.0017 2.2198 16.0017 2.49606V3.91465C16.0017 4.19091 15.7777 4.41486 15.5015 4.41486H12" stroke="#242729" stroke-linecap="round" stroke-linejoin="round"/>
<path d="M7.99832 9.99917V8.41251C7.99832 8.14721 8.10382 7.89279 8.29144 7.70522L8.70562 7.29105C8.89319 7.10342 9.14761 6.99798 9.41291 6.99792H14.5871C14.8524 6.99798 15.1068 7.10342 15.2944 7.29105L15.7085 7.70522C15.8962 7.89279 16.0017 8.14721 16.0017 8.41251V9.99917" stroke="#242729" stroke-linecap="round" stroke-linejoin="round"/>
<path d="M3.99664 14.0008H20.0033" stroke="#242729" stroke-linecap="round" stroke-linejoin="round"/>
<path d="M20.0033 21.0038V11.4138C20.0033 11.1485 19.8978 10.8941 19.7102 10.7065L19.296 10.2923C19.1084 10.1047 18.854 9.99921 18.5887 9.99921H5.41123C5.14593 9.99921 4.89151 10.1047 4.70394 10.2923L4.28977 10.7065C4.10214 10.8941 3.99664 11.1485 3.99664 11.4138V21.0038" stroke="#242729" stroke-linecap="round" stroke-linejoin="round"/>
</svg>
