<svg width="24" height="24" viewBox="0 0 24 24" fill="none" xmlns="http://www.w3.org/2000/svg">
<path fill-rule="evenodd" clip-rule="evenodd" d="M5.9975 21.0038H3.99666C3.44423 21.0036 2.99645 20.5558 2.99625 20.0033V14.0008C2.99645 13.4484 3.44423 13.0006 3.99666 13.0004H5.9975C6.54993 13.0006 6.99771 13.4484 6.99791 14.0008V20.0033C6.99771 20.5558 6.54993 21.0036 5.9975 21.0038V21.0038Z" stroke="#242729" stroke-linecap="round" stroke-linejoin="round"/>
<path d="M13.0004 17.0021H14.9612C15.3942 17.0023 15.8155 16.8619 16.1617 16.6019L18.5787 14.7892C19.1822 14.3369 20.0263 14.3971 20.5596 14.9302V14.9302C20.8439 15.2143 21.0037 15.5997 21.0037 16.0017C21.0037 16.4036 20.8439 16.7891 20.5596 17.0731L18.4857 19.147C17.9269 19.7055 17.2155 20.0863 16.4408 20.2414L13.5096 20.8277C12.9285 20.9439 12.3288 20.9296 11.7539 20.7857L9.10279 20.1234C8.78585 20.0435 8.46023 20.0032 8.13338 20.0033H6.99791" stroke="#242729" stroke-linecap="round" stroke-linejoin="round"/>
<path d="M13.0004 17.0021H14.486C14.888 17.0022 15.2736 16.8425 15.5578 16.5583C15.8421 16.274 16.0018 15.8885 16.0017 15.4865V15.1833C16.0018 14.4882 15.5287 13.8821 14.8542 13.7137L12.5612 13.1405C12.1885 13.0475 11.8059 13.0004 11.4218 13.0004V13.0004C10.4941 13.0001 9.58724 13.2748 8.81567 13.7898L6.99791 15.0013" stroke="#242729" stroke-linecap="round" stroke-linejoin="round"/>
<path d="M19.2708 6.73004C20.2475 7.70676 20.2475 9.29033 19.2708 10.267C18.2941 11.2438 16.7105 11.2438 15.7338 10.267C14.7571 9.29033 14.7571 7.70676 15.7338 6.73004C16.2028 6.261 16.839 5.9975 17.5023 5.9975C18.1656 5.9975 18.8018 6.261 19.2708 6.73004" stroke="#242729" stroke-linecap="round" stroke-linejoin="round"/>
<path fill-rule="evenodd" clip-rule="evenodd" d="M6.93134 6.04457C6.35282 5.46605 6.35282 4.52809 6.93134 3.94957L8.45145 2.42945C9.02997 1.85093 9.96794 1.85093 10.5465 2.42945L12.0666 3.94957C12.6451 4.52809 12.6451 5.46605 12.0666 6.04457L10.5465 7.56469C9.96794 8.14321 9.02997 8.14321 8.45145 7.56469L6.93134 6.04457Z" stroke="#242729" stroke-linecap="round" stroke-linejoin="round"/>
</svg>
