<svg width="24" height="24" viewBox="0 0 24 24" fill="none" xmlns="http://www.w3.org/2000/svg">
<path d="M11.9941 6.50943L11.646 6.17204L11.5285 6.05818C10.4033 5.01898 9.13527 4.5 7.73438 4.5C4.85136 4.5 2.5 6.83834 2.5 9.71723C2.5 11.1784 2.76067 12.2067 3.59935 13.3552C4.46693 14.5433 5.95877 15.8687 8.49118 17.8697C8.49159 17.8701 8.492 17.8704 8.49241 17.8707L11.1778 19.9663L11.9941 6.50943ZM11.9941 6.50943L12.3421 6.17191M11.9941 6.50943L12.3421 6.17191M12.3421 6.17191L12.4559 6.06154M12.3421 6.17191L12.4559 6.06154M12.4559 6.06154C13.502 5.08319 14.6896 4.565 16.0083 4.50574L16.271 4.5C19.1515 4.50289 21.5 6.84012 21.5 9.71723C21.5 11.1203 21.2592 12.1208 20.5042 13.2095C19.7247 14.3336 18.3859 15.5687 16.1154 17.3873C16.115 17.3876 16.1147 17.3879 16.1143 17.3882L15.1847 18.1251L12.8222 19.9663C12.3389 20.343 11.6614 20.3431 11.1781 19.9665L12.4559 6.06154Z" stroke="#242729"/>
</svg>
