<svg width="24" height="24" viewBox="0 0 24 24" fill="none" xmlns="http://www.w3.org/2000/svg">
<path fill-rule="evenodd" clip-rule="evenodd" d="M12 21.0038C16.9726 21.0038 21.0037 16.9727 21.0037 12C21.0037 7.02739 16.9726 2.99628 12 2.99628C7.02733 2.99628 2.99622 7.02739 2.99622 12C2.99622 16.9727 7.02733 21.0038 12 21.0038ZM12.85 8.24572L12.8498 8.22789C12.8403 7.68377 12.3963 7.24561 11.8499 7.24561L11.8427 7.24564C11.2937 7.24956 10.8498 7.69581 10.8498 8.24572C10.8498 8.79806 11.2976 9.24582 11.8499 9.24582C12.4023 9.24582 12.85 8.79806 12.85 8.24572ZM10.2585 11.2497C10.2585 10.8355 10.5943 10.4997 11.0085 10.4997H12.159C12.5732 10.4997 12.909 10.8355 12.909 11.2497V14.7515H13.3099C13.7241 14.7515 14.0599 15.0872 14.0599 15.5015C14.0599 15.9157 13.7241 16.2515 13.3099 16.2515H12.1666L12.159 16.2515L12.1515 16.2515H10.9996C10.5854 16.2515 10.2496 15.9157 10.2496 15.5015C10.2496 15.0872 10.5854 14.7515 10.9996 14.7515H11.409V11.9997H11.0085C10.5943 11.9997 10.2585 11.6639 10.2585 11.2497Z" fill="#242729"/>
</svg>
