<svg width="24" height="24" viewBox="0 0 24 24" fill="none" xmlns="http://www.w3.org/2000/svg">
<path fill-rule="evenodd" clip-rule="evenodd" d="M16.0017 21.0038H7.99833C5.23618 21.0038 2.99625 18.7638 2.99625 16.0017V7.99836C2.99625 5.23621 5.23618 2.99628 7.99833 2.99628H16.0017C18.7638 2.99628 21.0037 5.23621 21.0037 7.99836V16.0017C21.0037 18.7638 18.7638 21.0038 16.0017 21.0038Z" stroke="#242729" stroke-linecap="round" stroke-linejoin="round"/>
<path d="M11.999 7.99833C11.8609 7.99833 11.7489 8.11038 11.7499 8.24844C11.7499 8.3865 11.8619 8.49854 12 8.49854C12.1381 8.49854 12.2501 8.3865 12.2501 8.24844C12.2501 8.11038 12.1381 7.99833 11.999 7.99833" stroke="#242729" stroke-linecap="round" stroke-linejoin="round"/>
<path d="M12.2501 16.1858V11.4338H11.2497" stroke="#242729" stroke-linecap="round" stroke-linejoin="round"/>
</svg>
