<svg width="24" height="24" viewBox="0 0 24 24" fill="none" xmlns="http://www.w3.org/2000/svg">
<path d="M13.8184 12.5093C14.2738 13.3126 14.5381 14.2177 14.5799 15.1631L14.5857 15.4338C14.5828 18.7056 11.9296 21.3571 8.65715 21.3571C5.38289 21.3571 2.72858 18.7028 2.72858 15.4285C2.72858 12.1543 5.38289 9.49995 8.65715 9.49995C9.11877 9.49995 9.57318 9.55278 10.0138 9.65597L10.0553 9.66645L10.3305 9.73594L10.5313 9.53521L17.7474 2.31887L17.7475 2.31885C17.8002 2.26613 17.8677 2.23158 17.9403 2.21926L18.0165 2.21423H21.4286C21.6258 2.21423 21.7857 2.37413 21.7857 2.57138V5.99995C21.7857 6.19719 21.6258 6.35709 21.4286 6.35709H19.7143H19.2143V6.85709V8.57138C19.2143 8.75028 19.0823 8.89906 18.9107 8.9246L18.8427 8.92852H17.1429H16.6429V9.42852V11.1428C16.6429 11.3217 16.5109 11.4705 16.3393 11.496L16.2713 11.4999H14.0949H13.2085L13.6669 12.2586L13.8184 12.5093Z" stroke="#242729"/>
</svg>
