<svg width="24" height="24" viewBox="0 0 24 24" fill="none" xmlns="http://www.w3.org/2000/svg">
<path fill-rule="evenodd" clip-rule="evenodd" d="M7.5 3H16.504C18.987 3 21 5.013 21 7.496V16.505C21 18.987 18.987 21 16.504 21H7.496C5.013 21 3 18.987 3 16.504V7.5C3 5.015 5.015 3 7.5 3V3Z" stroke="#323232" stroke-width="1.5" stroke-linecap="round" stroke-linejoin="round"/>
<path d="M8.12 11.1V16.5" stroke="#323232" stroke-width="1.5" stroke-linecap="round" stroke-linejoin="round"/>
<path d="M11.719 16.5V13.35C11.719 12.107 12.726 11.1 13.969 11.1V11.1C15.212 11.1 16.219 12.107 16.219 13.35V16.5" stroke="#323232" stroke-width="1.5" stroke-linecap="round" stroke-linejoin="round"/>
<path d="M8.11801 7.838C7.99401 7.838 7.89301 7.939 7.89401 8.063C7.89401 8.187 7.99501 8.288 8.11901 8.288C8.24301 8.288 8.34401 8.187 8.34401 8.063C8.34401 7.938 8.24301 7.838 8.11801 7.838" stroke="#323232" stroke-width="1.5" stroke-linecap="round" stroke-linejoin="round"/>
</svg>
