<svg width="24" height="24" viewBox="0 0 24 24" fill="none" xmlns="http://www.w3.org/2000/svg">
<path d="M19.1112 10.6672V5.77778C19.1112 4.79594 18.3152 4 17.3334 4H5.77778C4.79594 4 4 4.79594 4 5.77778V18.2223C4 19.2041 4.79594 20.0001 5.77778 20.0001H12" stroke="#242729" stroke-linecap="round" stroke-linejoin="round"/>
<path d="M7.55556 7.55559H15.5556" stroke="#242729" stroke-linecap="round" stroke-linejoin="round"/>
<path d="M7.55556 11.1111H12" stroke="#242729" stroke-linecap="round" stroke-linejoin="round"/>
<path d="M7.55556 14.6667H10.2222" stroke="#242729" stroke-linecap="round" stroke-linejoin="round"/>
<path d="M20 20L18.5431 18.5432" stroke="#242729" stroke-linecap="round" stroke-linejoin="round"/>
<path d="M16.1991 12.8889C18.0273 12.8889 19.5094 14.371 19.5094 16.1991C19.5094 18.0273 18.0273 19.5094 16.1991 19.5094C14.3709 19.5094 12.8889 18.0273 12.8889 16.1991C12.889 14.371 14.371 12.889 16.1991 12.8889" stroke="#242729" stroke-linecap="round" stroke-linejoin="round"/>
</svg>
