<svg width="24" height="24" viewBox="0 0 24 24" fill="none" xmlns="http://www.w3.org/2000/svg">
<path fill-rule="evenodd" clip-rule="evenodd" d="M8.368 4.211L4.368 5.544C3.551 5.816 3 6.581 3 7.442V18.382C3 19.125 3.782 19.609 4.447 19.276L8.105 17.447C8.668 17.165 9.331 17.165 9.894 17.447L14.105 19.553C14.668 19.835 15.331 19.835 15.894 19.553L19.894 17.553C20.572 17.214 21 16.521 21 15.764V5.387C21 4.704 20.331 4.222 19.684 4.438L15.633 5.788C15.222 5.925 14.779 5.925 14.368 5.788L9.632 4.211C9.222 4.074 8.778 4.074 8.368 4.211V4.211Z" stroke="#323232" stroke-width="1.5" stroke-linecap="round" stroke-linejoin="round"/>
<path d="M15 9.53001V15.47" stroke="#323232" stroke-width="1.5" stroke-linecap="round" stroke-linejoin="round"/>
<path d="M9 7.53001V13.47" stroke="#323232" stroke-width="1.5" stroke-linecap="round" stroke-linejoin="round"/>
</svg>
