<svg width="24" height="24" viewBox="0 0 24 24" fill="none" xmlns="http://www.w3.org/2000/svg">
<path d="M15 4.01001V17.48" stroke="#242729" stroke-linecap="round" stroke-linejoin="round"/>
<path d="M9 5.77997V20" stroke="#242729" stroke-linecap="round" stroke-linejoin="round"/>
<path fill-rule="evenodd" clip-rule="evenodd" d="M15.632 4.103L20.316 5.664C20.725 5.8 21 6.182 21 6.613V18.618C21 19.361 20.218 19.845 19.553 19.512L15.895 17.683C15.332 17.401 14.669 17.401 14.106 17.683L9.895 19.789C9.332 20.071 8.669 20.071 8.106 19.789L3.553 17.513C3.214 17.343 3 16.997 3 16.618V5.279C3 4.596 3.669 4.114 4.316 4.33L8.367 5.68C8.778 5.817 9.221 5.817 9.632 5.68L14.367 4.102C14.778 3.966 15.222 3.966 15.632 4.103Z" stroke="#242729" stroke-linecap="round" stroke-linejoin="round"/>
</svg>
