<svg width="24" height="24" viewBox="0 0 24 24" fill="none" xmlns="http://www.w3.org/2000/svg">
<path d="M15 18H18L18 21" stroke="#242729" stroke-linecap="round" stroke-linejoin="round"/>
<path d="M21 18L18.0611 18V15" stroke="#242729" stroke-linecap="round" stroke-linejoin="round"/>
<path d="M8.49898 19.0033C5.46015 19.0033 2.99669 16.5398 2.99669 13.501C2.99669 10.4622 5.46015 7.99872 8.49898 7.99872C11.5378 7.99872 14.0013 10.4622 14.0013 13.501C14.0013 14.9603 13.4216 16.3598 12.3897 17.3917C11.3578 18.4236 9.95828 19.0033 8.49898 19.0033" stroke="#242729" stroke-linecap="round" stroke-linejoin="round"/>
<path d="M7.68754 12.4795L8.49888 11.6661V14.9154" stroke="#242729" stroke-linecap="round" stroke-linejoin="round"/>
<path d="M7.68962 14.9175H9.30812" stroke="#242729" stroke-linecap="round" stroke-linejoin="round"/>
<path d="M9.61028 4.66047C11.7591 2.51169 15.2429 2.5117 17.3917 4.66048C19.5405 6.80926 19.5405 10.2931 17.3917 12.4419" stroke="#242729" stroke-linecap="round" stroke-linejoin="round"/>
</svg>
