<svg width="24" height="24" viewBox="0 0 24 24" fill="none" xmlns="http://www.w3.org/2000/svg">
<path d="M6.49774 2.49603L7.99837 3.99666L6.49774 5.49728" stroke="#242729" stroke-linecap="round" stroke-linejoin="round"/>
<path d="M7.99836 3.99664H5.99753C4.33998 3.99664 2.99628 5.34035 2.99628 6.99789" stroke="#242729" stroke-linecap="round" stroke-linejoin="round"/>
<path d="M17.5023 21.5039L16.0017 20.0033L17.5023 18.5027" stroke="#242729" stroke-linecap="round" stroke-linejoin="round"/>
<path d="M16.0017 20.0033H18.0025C19.6601 20.0033 21.0038 18.6596 21.0038 17.0021" stroke="#242729" stroke-linecap="round" stroke-linejoin="round"/>
<path d="M9.499 20.0033C6.46016 20.0033 3.9967 17.5398 3.9967 14.501C3.9967 11.4622 6.46016 8.99872 9.499 8.99872C12.5378 8.99872 15.0013 11.4622 15.0013 14.501C15.0013 15.9603 14.4216 17.3598 13.3897 18.3917C12.3578 19.4236 10.9583 20.0033 9.499 20.0033" stroke="#242729" stroke-linecap="round" stroke-linejoin="round"/>
<path d="M8.68756 13.4795L9.49889 12.6662V15.9155" stroke="#242729" stroke-linecap="round" stroke-linejoin="round"/>
<path d="M8.68964 15.9175H10.3081" stroke="#242729" stroke-linecap="round" stroke-linejoin="round"/>
<path d="M10.6103 5.66047C12.7591 3.51169 16.2429 3.5117 18.3917 5.66048C20.5405 7.80926 20.5405 11.2931 18.3917 13.4419" stroke="#242729" stroke-linecap="round" stroke-linejoin="round"/>
</svg>
