<svg width="24" height="24" viewBox="0 0 24 24" fill="none" xmlns="http://www.w3.org/2000/svg">
<path d="M18.0025 9.99919V7.82629C18.0025 7.29607 17.7914 6.78686 17.4163 6.4117L14.5871 3.58252C14.2119 3.20736 13.7027 2.99628 13.1725 2.99628H5.99751C4.89205 2.99628 3.99667 3.89165 3.99667 4.99711V19.0029C3.99667 20.1084 4.89205 21.0038 5.99751 21.0038H9.99917" stroke="#242729" stroke-linecap="round" stroke-linejoin="round"/>
<path d="M18.0025 7.99836H14.0008C13.4486 7.99836 13.0004 7.55017 13.0004 6.99794V2.99628" stroke="#242729" stroke-linecap="round" stroke-linejoin="round"/>
<path d="M16.5019 22.0042C14.0158 22.0042 12 19.9883 12 17.5023C12 15.0163 14.0158 13.0004 16.5019 13.0004C18.9889 13.0004 21.0037 15.0163 21.0037 17.5023C21.0037 19.9883 18.9889 22.0042 16.5019 22.0042" stroke="#242729" stroke-linecap="round" stroke-linejoin="round"/>
<path d="M16.5019 15.7065V19.297" stroke="#242729" stroke-linecap="round" stroke-linejoin="round"/>
<path d="M18.2976 17.5023H14.7071" stroke="#242729" stroke-linecap="round" stroke-linejoin="round"/>
</svg>
