<svg viewBox="0 0 300 300" fill="none" xmlns="http://www.w3.org/2000/svg">
<path fill-rule="evenodd" clip-rule="evenodd" d="M126.129 57.7158L115.883 28.7357C115.645 28.0647 114.909 27.713 114.238 27.9503C113.871 28.08 113.582 28.3687 113.453 28.7357L99.5291 68.1166C68.1224 85.7837 46.9072 119.43 46.9072 158.031C46.9072 158.592 46.9117 159.152 46.9206 159.71L25.9645 165.16C25.5124 165.278 25.1593 165.631 25.0417 166.083C24.8625 166.772 25.2757 167.475 25.9645 167.655L48.0446 173.397C48.5213 176.587 49.1443 179.73 49.9065 182.818L28.6355 195.388C28.2333 195.626 27.9913 196.063 28.0029 196.53C28.0206 197.241 28.6117 197.804 29.3232 197.786L54.5909 197.157C55.7154 199.896 56.9544 202.576 58.302 205.191L42.3978 221.422C42.0708 221.755 41.95 222.24 42.0822 222.688C42.2835 223.371 43 223.761 43.6827 223.56L65.5123 217.122C84.1553 243.728 115.046 261.124 150 261.124C184.954 261.124 215.845 243.728 234.488 217.122L256.317 223.56C257 223.761 257.716 223.371 257.918 222.688C258.05 222.24 257.929 221.755 257.602 221.422L241.698 205.191C243.046 202.576 244.285 199.896 245.409 197.157L270.677 197.786C271.388 197.804 271.979 197.241 271.997 196.53C272.009 196.063 271.767 195.626 271.364 195.388L250.094 182.818C250.856 179.73 251.479 176.587 251.956 173.397L274.035 167.655C274.724 167.475 275.137 166.772 274.958 166.083C274.841 165.631 274.488 165.278 274.035 165.16L253.079 159.71C253.088 159.152 253.093 158.592 253.093 158.031C253.093 120.207 232.723 87.1404 202.355 69.2029L188.048 28.7357C187.81 28.0647 187.074 27.713 186.403 27.9503C186.036 28.08 185.747 28.3687 185.618 28.7357L175.252 58.0533C167.172 56.0188 158.712 54.9381 150 54.9381C141.783 54.9381 133.79 55.8995 126.129 57.7158ZM210.567 158.031C210.567 191.481 183.45 218.598 150 218.598C116.55 218.598 89.433 191.481 89.433 158.031C89.433 124.581 116.55 97.4639 150 97.4639C183.45 97.4639 210.567 124.581 210.567 158.031ZM150 123.237C151.337 123.237 152.486 124.183 152.744 125.494L158.808 156.329C159.069 157.654 159.066 159.017 158.801 160.341L152.752 190.569C152.489 191.88 151.338 192.825 150 192.825C148.662 192.825 147.511 191.88 147.25 190.568L141.196 160.163C140.933 158.838 140.932 157.475 141.193 156.151L147.253 125.494C147.512 124.182 148.663 123.237 150 123.237Z" fill="#111111"/>
</svg>
