<svg width="5" height="5" viewBox="0 0 5 5" fill="none" xmlns="http://www.w3.org/2000/svg">
<path fill-rule="evenodd" clip-rule="evenodd" d="M0.743891 0.950314C0.825441 0.939017 0.955353 0.921021 1.07789 0.921021C2.73503 0.921021 4.07789 2.26388 4.07789 3.92102C4.07789 4.04982 4.05965 4.17883 4.04755 4.26447C4.04529 4.2804 4.04325 4.29484 4.04158 4.30749C4.00542 4.58125 3.75418 4.77387 3.48042 4.73772C3.20665 4.70156 3.01403 4.45032 3.05019 4.17655C3.05392 4.14833 3.05732 4.12355 3.06037 4.10136C3.07151 4.02025 3.07789 3.97381 3.07789 3.92102C3.07789 2.81616 2.18274 1.92102 1.07789 1.92102C1.03006 1.92102 0.99231 1.92615 0.926647 1.93508C0.897136 1.9391 0.861987 1.94388 0.817752 1.9493C0.543663 1.98292 0.29422 1.78797 0.260605 1.51389C0.226991 1.2398 0.421934 0.990354 0.696022 0.956739C0.708976 0.95515 0.725157 0.952909 0.743891 0.950314Z" fill="#242729"/>
</svg>
