<svg width="15" height="15" viewBox="0 0 15 15" fill="none" xmlns="http://www.w3.org/2000/svg">
<path fill-rule="evenodd" clip-rule="evenodd" d="M10.0604 1.23244C11.0367 0.256179 12.6193 0.256179 13.5956 1.23244L13.7676 1.40444C14.7438 2.3807 14.7438 3.96329 13.7676 4.93955L5.37755 13.3295L5.37617 13.3309C5.18436 13.5212 4.94497 13.6579 4.6803 13.7241C4.68029 13.7241 4.68031 13.7241 4.6803 13.7241L0.958494 14.6548C0.916461 14.6662 0.872629 14.6721 0.827998 14.6721C0.767934 14.6722 0.709314 14.6613 0.654582 14.641C0.585148 14.6154 0.524229 14.5755 0.474393 14.5256C0.424462 14.4758 0.384566 14.4148 0.358989 14.3454C0.338697 14.2907 0.327835 14.2321 0.327881 14.172C0.327847 14.1274 0.333833 14.0835 0.345235 14.0415L1.27593 10.3197C1.27593 10.3197 1.27593 10.3197 1.27593 10.3197C1.34182 10.0562 1.47812 9.81477 1.67045 9.62244L10.0604 1.23244ZM1.51526 13.4847L4.4377 12.7539C4.52474 12.7322 4.60513 12.687 4.67119 12.6217C4.6714 12.6215 4.67098 12.6219 4.67119 12.6217L13.0604 4.23244C13.6462 3.6467 13.6462 2.69729 13.0604 2.11155L12.8884 1.93955C12.3027 1.35381 11.3533 1.35381 10.7676 1.93955L2.37755 10.3295C2.31389 10.3932 2.26818 10.4738 2.24607 10.5623L1.51526 13.4847Z" fill="#242729"/>
</svg>
