<svg width="20" height="19" viewBox="0 0 20 19" fill="none" xmlns="http://www.w3.org/2000/svg">
<path fill-rule="evenodd" clip-rule="evenodd" d="M3.013 1.5C2.18068 1.5 1.5 2.18059 1.5 3.028V15.972C1.5 16.8194 2.18068 17.5 3.013 17.5H16.987C17.8193 17.5 18.5 16.8194 18.5 15.972V10.067C18.5 9.79086 18.7239 9.567 19 9.567C19.2761 9.567 19.5 9.79086 19.5 10.067V15.972C19.5 17.3646 18.3787 18.5 16.987 18.5H3.013C1.62132 18.5 0.5 17.3646 0.5 15.972V3.028C0.5 1.63541 1.62132 0.5 3.013 0.5H10C10.2761 0.5 10.5 0.723858 10.5 1C10.5 1.27614 10.2761 1.5 10 1.5H3.013Z" fill="#242729"/>
</svg>
