<svg width="16" height="16" viewBox="0 0 16 16" fill="none" xmlns="http://www.w3.org/2000/svg">
<path fill-rule="evenodd" clip-rule="evenodd" d="M12.3022 2.64629C12.0095 2.34837 11.5307 2.34413 11.2328 2.63682C10.9349 2.92951 10.9306 3.40831 11.2233 3.70623L12.2658 4.76737C12.5585 5.0653 13.0373 5.06954 13.3352 4.77684C13.6332 4.48415 13.6374 4.00536 13.3447 3.70743L12.3022 2.64629ZM9.51787 4.44187L2.63387 11.3259C2.50854 11.4505 2.43854 11.6199 2.43854 11.7965V13.5799H4.22187C4.39854 13.5799 4.56787 13.5099 4.69254 13.3845L11.5772 6.5012C11.8372 6.2412 11.8372 5.8192 11.5772 5.5592L10.4599 4.44187C10.1999 4.18187 9.77787 4.18187 9.51787 4.44187Z" fill="#242729"/>
</svg>
