<svg width="24" height="24" viewBox="0 0 24 24" fill="none" xmlns="http://www.w3.org/2000/svg">
<path fill-rule="evenodd" clip-rule="evenodd" d="M12.119 11.908V7.477C12.119 6.661 11.458 6 10.642 6C9.82599 6 9.16499 6.661 9.16499 7.477V16L6.51899 14.642C5.91699 14.333 5.18399 14.448 4.70599 14.926C4.07299 15.559 4.10299 16.594 4.77099 17.19L9.59599 21.493C9.96299 21.819 10.436 22 10.927 22H15.56C16.497 22 17.309 21.349 17.512 20.434L18.585 15.604C18.898 14.194 17.955 12.812 16.528 12.591L12.119 11.908Z" stroke="#242729" stroke-linecap="round" stroke-linejoin="round"/>
<path d="M5.73599 7C5.73599 4.239 7.97499 2 10.736 2C13.497 2 15.736 4.239 15.736 7" stroke="#242729" stroke-linecap="round" stroke-linejoin="round"/>
</svg>
