<svg width="24" height="24" viewBox="0 0 24 24" fill="none" xmlns="http://www.w3.org/2000/svg">
<path d="M4.99707 20.0033L9.32336 15.677" stroke="#242729" stroke-linecap="round" stroke-linejoin="round"/>
<path fill-rule="evenodd" clip-rule="evenodd" d="M11.33 9.50502L13.7068 7.12824C13.9626 6.87711 14.09 6.52302 14.0527 6.16646L13.8798 4.65113C13.8516 4.40235 13.9839 4.16297 14.2096 4.05461C14.4353 3.94624 14.7049 3.99264 14.8814 4.17024L20.8302 10.1191C21.0078 10.2956 21.0542 10.5652 20.9459 10.7909C20.8375 11.0166 20.5981 11.1489 20.3493 11.1207L18.834 10.9477C18.4775 10.9104 18.1234 11.0378 17.8722 11.2937L15.4954 13.6704C15.2736 13.8904 15.149 14.1901 15.1495 14.5025V18.6645C15.1487 19.1403 14.8617 19.569 14.422 19.751C13.9823 19.933 13.4763 19.8326 13.1394 19.4965L5.50916 11.8593C5.17305 11.5224 5.07263 11.0164 5.25464 10.5767C5.43665 10.137 5.86533 9.85002 6.34121 9.84926H10.5032C10.8135 9.84879 11.111 9.72495 11.33 9.50502Z" stroke="#242729" stroke-linecap="round" stroke-linejoin="round"/>
</svg>
