<svg width="24" height="24" viewBox="0 0 24 24" fill="none" xmlns="http://www.w3.org/2000/svg">
<path d="M3.5 19.9999L7.87 15.6299" stroke="#242729" stroke-linecap="round" stroke-linejoin="round"/>
<path fill-rule="evenodd" clip-rule="evenodd" d="M4.95597 11.294C4.56497 11.685 4.56497 12.318 4.95597 12.708L7.87397 15.626L10.792 18.544C11.183 18.935 11.816 18.935 12.206 18.544L13.381 17.369C13.569 17.181 13.674 16.927 13.674 16.662V12.726L16.574 9.82597L18.883 9.94897C19.166 9.96397 19.443 9.85797 19.643 9.65797L20.217 9.08397C20.608 8.69297 20.608 8.05997 20.217 7.66997L15.831 3.28397C15.44 2.89297 14.807 2.89297 14.417 3.28397L13.843 3.85797C13.642 4.05897 13.536 4.33497 13.552 4.61797L13.675 6.92697L10.775 9.82697H6.83797C6.57297 9.82697 6.31797 9.93197 6.13097 10.12L4.95597 11.294V11.294Z" stroke="#242729" stroke-linecap="round" stroke-linejoin="round"/>
<path d="M16.57 9.82999L13.67 6.92999" stroke="#242729" stroke-linecap="round" stroke-linejoin="round"/>
</svg>
