<svg width="24" height="24" viewBox="0 0 24 24" fill="none" xmlns="http://www.w3.org/2000/svg">
<path fill-rule="evenodd" clip-rule="evenodd" d="M8.62792 6.92219L8.62792 10.2835C8.62858 10.5938 8.50582 10.8917 8.28669 11.1115L5.34373 14.0545C5.00778 14.3915 4.9076 14.8976 5.08981 15.3372C5.27202 15.7768 5.70084 16.0636 6.17671 16.0642L11.0733 16.0664C11.0733 16.0665 11.0733 16.0665 11.0733 16.0666L11.0733 20.4256H8.51413C8.23799 20.4256 8.01413 20.6495 8.01413 20.9256C8.01413 21.2018 8.23799 21.4256 8.51413 21.4256H14.6324C14.9086 21.4256 15.1324 21.2018 15.1324 20.9256C15.1324 20.6495 14.9086 20.4256 14.6324 20.4256H12.0733L12.0733 16.0668L16.9724 16.069C17.4483 16.0685 17.8771 15.7817 18.0593 15.3421C18.2416 14.9025 18.1414 14.3964 17.8054 14.0594L14.8625 11.1164C14.6412 10.8958 14.5174 10.5959 14.5187 10.2834L14.5188 6.92216C14.5154 6.56367 14.6757 6.22322 14.9542 5.99744L16.148 5.04827C16.3439 4.89233 16.4196 4.62947 16.3366 4.39325C16.2536 4.15702 16.0302 3.99922 15.7798 4L7.36686 4.00001C7.11649 3.99922 6.89307 4.15702 6.8101 4.39325C6.72713 4.62947 6.80281 4.89232 6.99869 5.04827L8.19248 5.99748C8.47095 6.22326 8.63127 6.5637 8.62792 6.92219Z" fill="#242729"/>
</svg>
