<svg width="24" height="24" viewBox="0 0 24 24" fill="none" xmlns="http://www.w3.org/2000/svg">
<path fill-rule="evenodd" clip-rule="evenodd" d="M4.5 12C4.5 7.85786 7.85786 4.5 12 4.5C16.1421 4.5 19.5 7.85786 19.5 12C19.5 16.1421 16.1421 19.5 12 19.5C7.85786 19.5 4.5 16.1421 4.5 12ZM12 3.5C7.30558 3.5 3.5 7.30558 3.5 12C3.5 16.6944 7.30558 20.5 12 20.5C16.6944 20.5 20.5 16.6944 20.5 12C20.5 7.30558 16.6944 3.5 12 3.5ZM15.3536 9.56066C15.5488 9.3654 15.5488 9.04882 15.3536 8.85355C15.1583 8.65829 14.8417 8.65829 14.6464 8.85355L9.35355 14.1464C9.15829 14.3417 9.15829 14.6583 9.35355 14.8536C9.54882 15.0488 9.8654 15.0488 10.0607 14.8536L15.3536 9.56066Z" fill="#242729"/>
</svg>
