<svg width="24" height="24" viewBox="0 0 24 24" fill="none" xmlns="http://www.w3.org/2000/svg">
<path fill-rule="evenodd" clip-rule="evenodd" d="M21.0037 12C21.0037 16.9727 16.9726 21.0038 12 21.0038C7.02733 21.0038 2.99622 16.9727 2.99622 12C2.99622 7.02739 7.02733 2.99628 12 2.99628C16.9726 2.99628 21.0037 7.02739 21.0037 12ZM13 16.0013C12.9993 16.5532 12.5515 17.0002 11.9996 17C11.4476 16.9998 11.0002 16.5524 11 16.0004C10.9998 15.4485 11.4468 15.0007 11.9987 15C12.2644 14.9997 12.5193 15.105 12.7071 15.2929C12.895 15.4807 13.0003 15.7356 13 16.0013ZM15.1495 10.103C15.0462 8.44338 13.6325 7.17536 11.9757 7.24768C10.5037 7.20364 9.20202 8.20414 8.86841 9.64198C8.77479 10.0455 9.02599 10.4485 9.42948 10.5421C9.83298 10.6357 10.236 10.3845 10.3296 9.98101C10.5029 9.23388 11.1834 8.71587 11.9497 8.74768C11.9739 8.74868 11.9981 8.74852 12.0223 8.74718C12.8637 8.7006 13.5861 9.33535 13.6508 10.1726C13.6426 10.6492 13.3811 11.0862 12.9634 11.3182L12.9633 11.3182L11.6358 12.0558C11.2737 12.2569 11.1432 12.7135 11.3444 13.0756C11.5456 13.4377 12.0022 13.5681 12.3642 13.367L13.6917 12.6295L13.6918 12.6294C14.5924 12.1291 15.151 11.1799 15.151 10.1496C15.151 10.1341 15.1505 10.1185 15.1495 10.103Z" fill="#242729"/>
</svg>
