<svg width="24" height="24" viewBox="0 0 24 24" fill="none" xmlns="http://www.w3.org/2000/svg">
<path fill-rule="evenodd" clip-rule="evenodd" d="M16.0017 21.0038H7.99833C5.23576 21.0038 2.99625 18.7643 2.99625 16.0017V7.99836C2.99625 5.23579 5.23576 2.99628 7.99833 2.99628H16.0017C18.7642 2.99628 21.0037 5.23579 21.0037 7.99836V16.0017C21.0037 18.7643 18.7642 21.0038 16.0017 21.0038Z" stroke="#242729" stroke-linecap="round" stroke-linejoin="round"/>
<path d="M12 12.7114L13.3276 11.9739C13.9901 11.6059 14.401 10.9075 14.401 10.1497C14.3225 8.88935 13.2417 7.92858 11.9808 7.99839C10.8543 7.95162 9.85385 8.71318 9.599 9.81155" stroke="#242729" stroke-linecap="round" stroke-linejoin="round"/>
<path d="M12.1002 15.9018C12.1001 15.957 12.0553 16.0017 12.0001 16.0017C11.9449 16.0017 11.9001 15.9569 11.9001 15.9017C11.9001 15.8465 11.9448 15.8017 12 15.8016C12.0266 15.8016 12.0521 15.8121 12.0709 15.8309C12.0897 15.8497 12.1002 15.8752 12.1002 15.9018" stroke="#242729" stroke-linecap="round" stroke-linejoin="round"/>
</svg>
