<svg width="24" height="24" viewBox="0 0 24 24" fill="none" xmlns="http://www.w3.org/2000/svg">
<path d="M6.126 13.8L3 17L5.5 18.5L7 21L10.899 16.905" stroke="#242729" stroke-linecap="round" stroke-linejoin="round"/>
<path d="M13.101 16.905L17 21L18.5 18.5L21 17L17.874 13.8" stroke="#242729" stroke-linecap="round" stroke-linejoin="round"/>
<path d="M16.9497 5.05025C19.6834 7.78392 19.6834 12.2161 16.9497 14.9497C14.216 17.6834 9.78386 17.6834 7.05019 14.9497C4.31652 12.2161 4.31652 7.78392 7.05019 5.05025C9.78386 2.31658 14.216 2.31658 16.9497 5.05025" stroke="#242729" stroke-linecap="round" stroke-linejoin="round"/>
<path fill-rule="evenodd" clip-rule="evenodd" d="M11.999 12.584L13.796 13.528C14.146 13.712 14.555 13.415 14.488 13.025L14.145 11.024L15.599 9.60798C15.882 9.33198 15.726 8.85098 15.335 8.79398L13.326 8.50198L12.428 6.68098C12.253 6.32598 11.748 6.32598 11.573 6.68098L10.675 8.50198L8.66497 8.79498C8.27397 8.85198 8.11797 9.33298 8.40097 9.60898L9.85497 11.025L9.51197 13.026C9.44497 13.416 9.85397 13.713 10.204 13.529L12.001 12.585H11.999V12.584Z" stroke="#242729" stroke-linecap="round" stroke-linejoin="round"/>
</svg>
