<svg width="24" height="24" viewBox="0 0 24 24" fill="none" xmlns="http://www.w3.org/2000/svg">
<path fill-rule="evenodd" clip-rule="evenodd" d="M18.364 18.3639C21.8787 14.8492 21.8787 9.15076 18.364 5.63604C14.8493 2.12132 9.15082 2.12132 5.6361 5.63604C2.12138 9.15074 2.12138 14.8492 5.6361 18.3639C9.1508 21.8787 14.8493 21.8787 18.364 18.3639ZM9.79498 7C9.51884 7 9.29498 7.22386 9.29498 7.5V11.5H8C7.72386 11.5 7.5 11.7239 7.5 12C7.5 12.2761 7.72386 12.5 8 12.5H9.29498V14.25H8C7.72386 14.25 7.5 14.4739 7.5 14.75C7.5 15.0261 7.72386 15.25 8 15.25H9.29498V16.5C9.29498 16.7761 9.51884 17 9.79498 17C10.0711 17 10.295 16.7761 10.295 16.5V15.25H13C13.2761 15.25 13.5 15.0261 13.5 14.75C13.5 14.4739 13.2761 14.25 13 14.25H10.295V12.5H13.57L13.5715 12.5L13.573 12.5C15.1451 12.5 16.478 11.3001 16.478 9.75C16.478 8.19992 15.1451 7 13.573 7H9.79498ZM13.5715 11.5L13.573 11.5C14.6568 11.5 15.478 10.6859 15.478 9.75C15.478 8.81408 14.6568 8 13.573 8H10.295V11.5H13.57L13.5715 11.5Z" fill="#242729"/>
</svg>
