<svg width="24" height="24" viewBox="0 0 24 24" fill="none" xmlns="http://www.w3.org/2000/svg">
<path fill-rule="evenodd" clip-rule="evenodd" d="M19.0029 21.0038H5.1012C4.0019 21.0041 3.10835 20.1172 3.10037 19.018L2.99627 5.01212C2.99237 4.47888 3.20141 3.96612 3.57707 3.58765C3.95272 3.20918 4.46391 2.99628 4.99716 2.99628H16.1738C16.7044 2.99628 17.2133 3.20716 17.5884 3.58252L20.4175 6.4117C20.7927 6.78688 21.0036 7.29569 21.0038 7.82629V19.0029C21.0038 19.5336 20.7932 20.0426 20.4179 20.4179C20.0426 20.7932 19.5336 21.0038 19.0029 21.0038Z" stroke="#242729" stroke-linecap="round" stroke-linejoin="round"/>
<path d="M15.9947 2.99628V6.99794C15.9945 7.55038 15.5467 7.99816 14.9942 7.99836H8.99175C8.43932 7.99816 7.99153 7.55038 7.99133 6.99794V2.99628" stroke="#242729" stroke-linecap="round" stroke-linejoin="round"/>
<circle cx="12" cy="14.501" r="2.50104" stroke="#242729" stroke-linecap="round" stroke-linejoin="round"/>
</svg>
