<svg width="24" height="24" viewBox="0 0 24 24" fill="none" xmlns="http://www.w3.org/2000/svg">
<path fill-rule="evenodd" clip-rule="evenodd" d="M11.2516 4.2386C11.4501 4.0401 11.7193 3.92859 12 3.92859C12.2807 3.92859 12.5499 4.0401 12.7484 4.2386C12.9469 4.4371 13.0584 4.70631 13.0584 4.98703V5.05716L13.0584 5.05915C13.0598 5.40741 13.163 5.74766 13.3553 6.03801C13.5471 6.32762 13.8192 6.55499 14.1382 6.69229C14.464 6.83549 14.8252 6.87809 15.1754 6.8146C15.5265 6.75094 15.8504 6.58357 16.1055 6.33407L16.1055 6.33409L16.1094 6.33019L16.1561 6.28344L16.1563 6.28324C16.2546 6.18483 16.3714 6.10676 16.4999 6.0535C16.6284 6.00023 16.7661 5.97282 16.9052 5.97282C17.0443 5.97282 17.182 6.00023 17.3105 6.0535C17.439 6.10676 17.5557 6.18483 17.654 6.28324L17.6544 6.28364C17.7528 6.38194 17.8309 6.49867 17.8842 6.62717C17.9374 6.75566 17.9649 6.89339 17.9649 7.03249C17.9649 7.17158 17.9374 7.30931 17.8842 7.4378C17.8309 7.5663 17.7528 7.68303 17.6544 7.78133L17.6542 7.78153L17.6075 7.82828L17.6075 7.82826L17.6036 7.8322C17.3541 8.08727 17.1867 8.41123 17.1231 8.7623C17.066 9.07738 17.0947 9.40134 17.2053 9.70042C17.2095 9.75508 17.2227 9.80877 17.2443 9.85932C17.3815 10.1794 17.6093 10.4524 17.8997 10.6447C18.19 10.837 18.5303 10.9402 18.8785 10.9416L18.8805 10.9416H19.013C19.2937 10.9416 19.5629 11.0531 19.7614 11.2516C19.9599 11.4501 20.0714 11.7193 20.0714 12C20.0714 12.2807 19.9599 12.55 19.7614 12.7484C19.5629 12.9469 19.2937 13.0585 19.013 13.0585L18.9429 13.0585L18.9409 13.0585C18.5926 13.0599 18.2524 13.163 17.962 13.3553C17.6724 13.5471 17.4451 13.8192 17.3077 14.1382C17.1645 14.464 17.1219 14.8252 17.1854 15.1754C17.2491 15.5265 17.4164 15.8504 17.6659 16.1055L17.6659 16.1055L17.6698 16.1094L17.7166 16.1562L17.7168 16.1564C17.8152 16.2547 17.8932 16.3714 17.9465 16.4999C17.9998 16.6284 18.0272 16.7661 18.0272 16.9052C18.0272 17.0443 17.9998 17.182 17.9465 17.3105C17.8933 17.439 17.8152 17.5558 17.7168 17.6541L17.7164 17.6545C17.6181 17.7529 17.5013 17.8309 17.3729 17.8842C17.2444 17.9375 17.1066 17.9649 16.9675 17.9649C16.8284 17.9649 16.6907 17.9375 16.5622 17.8842C16.4337 17.8309 16.317 17.7529 16.2187 17.6545L16.2185 17.6543L16.1717 17.6075L16.1718 17.6075L16.1678 17.6036C15.9127 17.3541 15.5888 17.1868 15.2377 17.1231C14.8875 17.0596 14.5264 17.1022 14.2006 17.2454C13.8816 17.3827 13.6095 17.6101 13.4177 17.8997C13.2254 18.19 13.1222 18.5303 13.1208 18.8785L13.1208 18.8805V19.013C13.1208 19.2937 13.0093 19.5629 12.8108 19.7614C12.6123 19.9599 12.3431 20.0714 12.0623 20.0714C11.7816 20.0714 11.5124 19.9599 11.3139 19.7614C11.1154 19.5629 11.0039 19.2937 11.0039 19.013V18.9429H11.004L11.0038 18.9312C10.9954 18.573 10.8794 18.2255 10.671 17.9341C10.4656 17.647 10.1798 17.4272 9.84975 17.3025C9.52711 17.1635 9.17052 17.1227 8.82462 17.1854C8.47354 17.2491 8.14959 17.4165 7.89452 17.666L7.8945 17.6659L7.8906 17.6698L7.84384 17.7166L7.84365 17.7168C7.74535 17.8152 7.62862 17.8933 7.50012 17.9465C7.37163 17.9998 7.2339 18.0272 7.0948 18.0272C6.95571 18.0272 6.81798 17.9998 6.68948 17.9465C6.56099 17.8933 6.44426 17.8152 6.34596 17.7168L6.34556 17.7164C6.24715 17.6181 6.16908 17.5014 6.11582 17.3729C6.06255 17.2444 6.03514 17.1066 6.03514 16.9675C6.03514 16.8285 6.06255 16.6907 6.11582 16.5622C6.16908 16.4337 6.24715 16.317 6.34556 16.2187L6.34576 16.2185L6.39251 16.1718L6.39253 16.1718L6.39639 16.1678C6.64589 15.9128 6.81326 15.5888 6.87691 15.2377C6.94041 14.8875 6.89781 14.5264 6.75461 14.2006C6.61731 13.8815 6.38994 13.6095 6.10033 13.4177C5.80997 13.2254 5.46973 13.1222 5.12147 13.1208H5.11948H4.98701C4.7063 13.1208 4.43708 13.0093 4.23858 12.8108C4.04008 12.6123 3.92857 12.3431 3.92857 12.0624C3.92857 11.7816 4.04008 11.5124 4.23858 11.3139C4.43708 11.1154 4.7063 11.0039 4.98701 11.0039H5.05714V11.0041L5.06883 11.0038C5.42705 10.9954 5.77447 10.8794 6.06591 10.671C6.35307 10.4656 6.5728 10.1798 6.69751 9.84975C6.83651 9.52712 6.87729 9.17053 6.81458 8.82464C6.75092 8.47356 6.58355 8.1496 6.33405 7.89454L6.33407 7.89452L6.33018 7.89062L6.28342 7.84387L6.28323 7.84367C6.18481 7.74537 6.10675 7.62863 6.05348 7.50014C6.00021 7.37165 5.9728 7.23392 5.9728 7.09482C5.9728 6.95573 6.00021 6.818 6.05348 6.6895C6.10675 6.56101 6.18481 6.44428 6.28323 6.34598L6.28362 6.34558C6.38192 6.24717 6.49865 6.1691 6.62715 6.11584C6.75564 6.06257 6.89337 6.03516 7.03247 6.03516C7.17156 6.03516 7.30929 6.06257 7.43779 6.11584C7.56628 6.1691 7.68301 6.24717 7.78131 6.34558L7.78151 6.34578L7.82826 6.39253L7.82824 6.39255L7.83218 6.39641C8.08725 6.64591 8.41121 6.81328 8.76228 6.87693C9.07736 6.93406 9.40132 6.90531 9.7004 6.79467C9.75506 6.7905 9.80876 6.77735 9.8593 6.75569C10.1794 6.6185 10.4524 6.39071 10.6447 6.10035C10.837 5.80999 10.9402 5.46975 10.9416 5.12149V5.1195V4.98703C10.9416 4.70631 11.0531 4.4371 11.2516 4.2386ZM18.2237 14.5396L17.7662 14.3377L18.2258 14.5346C18.2862 14.3938 18.3864 14.2737 18.5142 14.1891C18.6417 14.1046 18.7911 14.0592 18.944 14.0585H19.013C19.5589 14.0585 20.0825 13.8416 20.4685 13.4556C20.8546 13.0695 21.0714 12.5459 21.0714 12C21.0714 11.4541 20.8546 10.9305 20.4685 10.5445C20.0825 10.1584 19.5589 9.94158 19.013 9.94158H18.8816C18.7287 9.94078 18.5793 9.89539 18.4518 9.81096C18.3473 9.74174 18.2612 9.64876 18.2003 9.54011C18.1944 9.49123 18.1813 9.44338 18.1613 9.39813C18.0979 9.25451 18.079 9.09519 18.107 8.94071C18.1349 8.78703 18.2079 8.64516 18.3168 8.5332L18.3611 8.48883L18.3613 8.48863C18.5526 8.2975 18.7044 8.07055 18.808 7.82074C18.9115 7.57086 18.9649 7.303 18.9649 7.03249C18.9649 6.76197 18.9115 6.49411 18.808 6.24422C18.7044 5.9945 18.5527 5.76762 18.3615 5.57653C18.1704 5.38514 17.9433 5.23332 17.6935 5.12973C17.4436 5.02614 17.1757 4.97282 16.9052 4.97282C16.6347 4.97282 16.3668 5.02614 16.1169 5.12973C15.867 5.23332 15.64 5.38514 15.4488 5.57653L15.4045 5.6209C15.2925 5.72975 15.1506 5.80278 14.997 5.83064C14.8425 5.85865 14.6832 5.83974 14.5395 5.77635L14.5396 5.77633L14.5346 5.77421C14.3938 5.71385 14.2737 5.61362 14.1891 5.48586C14.1046 5.35834 14.0592 5.20895 14.0584 5.05601V4.98703C14.0584 4.4411 13.8416 3.91752 13.4555 3.53149C13.0695 3.14546 12.5459 2.92859 12 2.92859C11.4541 2.92859 10.9305 3.14546 10.5445 3.53149C10.1584 3.91752 9.94156 4.4411 9.94156 4.98703V5.11844C9.94076 5.27134 9.89537 5.4207 9.81094 5.5482C9.74172 5.65272 9.64874 5.73881 9.54009 5.79972C9.49121 5.80562 9.44336 5.81872 9.39812 5.83869C9.25449 5.90208 9.09517 5.92099 8.94069 5.89298C8.78701 5.86511 8.64514 5.79208 8.53318 5.68323L8.48881 5.63887L8.48862 5.63867C8.29748 5.44738 8.07053 5.29562 7.82073 5.19206C7.57084 5.08847 7.30298 5.03515 7.03247 5.03515C6.76195 5.03515 6.4941 5.08847 6.24421 5.19206C5.9944 5.29562 5.76745 5.44738 5.57632 5.63867C5.38502 5.8298 5.23326 6.05676 5.12971 6.30656C5.02612 6.55645 4.9728 6.82431 4.9728 7.09482C4.9728 7.36533 5.02612 7.63319 5.12971 7.88308C5.23326 8.13289 5.38502 8.35984 5.57632 8.55097L5.57651 8.55117L5.62089 8.59554C5.72973 8.7075 5.80276 8.84937 5.83062 9.00305C5.85863 9.15752 5.83972 9.31685 5.77633 9.46047C5.77208 9.47011 5.76813 9.47988 5.7645 9.48976C5.71008 9.63773 5.6124 9.76591 5.48416 9.85763C5.35732 9.94835 5.20638 9.99925 5.05058 10.0039H4.98701C4.44108 10.0039 3.91751 10.2208 3.53147 10.6068C3.14544 10.9928 2.92857 11.5164 2.92857 12.0624C2.92857 12.6083 3.14544 13.1319 3.53147 13.5179C3.91751 13.9039 4.44108 14.1208 4.98701 14.1208H5.11833C5.27127 14.1216 5.42066 14.167 5.54818 14.2514C5.67594 14.336 5.77617 14.4561 5.83653 14.597L5.83651 14.597L5.83867 14.6019C5.90206 14.7455 5.92097 14.9048 5.89296 15.0593C5.86509 15.213 5.79207 15.3549 5.68322 15.4668L5.63885 15.5112L5.63865 15.5114C5.44736 15.7025 5.2956 15.9295 5.19204 16.1793C5.08846 16.4292 5.03514 16.697 5.03514 16.9675C5.03514 17.2381 5.08846 17.5059 5.19204 17.7558C5.29563 18.0057 5.44746 18.2327 5.63885 18.4239C5.82994 18.6151 6.05682 18.7668 6.30654 18.8703C6.55643 18.9739 6.82429 19.0272 7.0948 19.0272C7.36532 19.0272 7.63317 18.9739 7.88306 18.8703C8.13295 18.7667 8.35998 18.6149 8.55115 18.4235L8.59552 18.3791C8.70748 18.2703 8.84935 18.1973 9.00303 18.1694C9.1575 18.1414 9.31683 18.1603 9.46045 18.2237C9.47009 18.2279 9.47986 18.2319 9.48975 18.2355C9.63771 18.2899 9.76589 18.3876 9.85761 18.5159C9.94833 18.6427 9.99923 18.7936 10.0039 18.9494V19.013C10.0039 19.5589 10.2208 20.0825 10.6068 20.4685C10.9928 20.8546 11.5164 21.0714 12.0623 21.0714C12.6083 21.0714 13.1318 20.8546 13.5179 20.4685C13.9039 20.0825 14.1208 19.5589 14.1208 19.013V18.8817C14.1216 18.7288 14.1669 18.5794 14.2514 18.4518C14.336 18.3241 14.4561 18.2238 14.597 18.1635L14.597 18.1635L14.6019 18.1613C14.7455 18.098 14.9048 18.079 15.0593 18.1071C15.213 18.1349 15.3549 18.208 15.4668 18.3168L15.5112 18.3612C15.7024 18.5526 15.9294 18.7044 16.1793 18.808C16.4292 18.9116 16.697 18.9649 16.9675 18.9649C17.238 18.9649 17.5059 18.9116 17.7558 18.808C18.0056 18.7044 18.2325 18.5527 18.4237 18.3614C18.615 18.1702 18.7667 17.9433 18.8703 17.6935C18.9739 17.4436 19.0272 17.1757 19.0272 16.9052C19.0272 16.6347 18.9739 16.3668 18.8703 16.117C18.7667 15.8671 18.615 15.6402 18.4237 15.4491L18.4235 15.4489L18.3791 15.4045C18.2703 15.2925 18.1972 15.1507 18.1694 14.997C18.1414 14.8425 18.1603 14.6832 18.2237 14.5396ZM9.92857 12C9.92857 10.856 10.856 9.92859 12 9.92859C13.144 9.92859 14.0714 10.856 14.0714 12C14.0714 13.144 13.144 14.0714 12 14.0714C10.856 14.0714 9.92857 13.144 9.92857 12ZM12 8.92859C10.3037 8.92859 8.92857 10.3037 8.92857 12C8.92857 13.6963 10.3037 15.0714 12 15.0714C13.6963 15.0714 15.0714 13.6963 15.0714 12C15.0714 10.3037 13.6963 8.92859 12 8.92859Z" fill="#242729"/>
</svg>
