<svg width="24" height="24" viewBox="0 0 24 24" fill="none" xmlns="http://www.w3.org/2000/svg">
<path fill-rule="evenodd" clip-rule="evenodd" d="M18.1054 15.3188C18.0561 15.047 18.0894 14.7666 18.2009 14.5139C18.3072 14.266 18.4835 14.0547 18.7084 13.9058C18.9332 13.7569 19.1966 13.677 19.4663 13.6759H19.5417C19.9862 13.6759 20.4125 13.4994 20.7268 13.1851C21.0411 12.8708 21.2176 12.4445 21.2176 12C21.2176 11.5555 21.0411 11.1292 20.7268 10.8149C20.4125 10.5006 19.9862 10.3241 19.5417 10.3241H19.3992C19.1296 10.323 18.8661 10.2431 18.6413 10.0942C18.4165 9.94531 18.2401 9.73393 18.1339 9.48609V9.41905C18.0224 9.16631 17.9891 8.88594 18.0384 8.61411C18.0877 8.34227 18.2173 8.09144 18.4104 7.89395L18.4607 7.84367C18.6165 7.68802 18.7402 7.50318 18.8245 7.29973C18.9088 7.09627 18.9522 6.87819 18.9522 6.65795C18.9522 6.4377 18.9088 6.21962 18.8245 6.01616C18.7402 5.81271 18.6165 5.62787 18.4607 5.47222C18.3051 5.3164 18.1202 5.19279 17.9168 5.10845C17.7133 5.02411 17.4952 4.98069 17.275 4.98069C17.0547 4.98069 16.8367 5.02411 16.6332 5.10845C16.4298 5.19279 16.2449 5.3164 16.0893 5.47222L16.039 5.5225C15.8415 5.71568 15.5907 5.84527 15.3188 5.89456C15.047 5.94385 14.7666 5.91058 14.5139 5.79903C14.266 5.69281 14.0547 5.51643 13.9058 5.29161C13.7569 5.06679 13.677 4.80335 13.6759 4.5337V4.45828C13.6759 4.0138 13.4993 3.58752 13.1851 3.27322C12.8708 2.95892 12.4445 2.78235 12 2.78235C11.5555 2.78235 11.1292 2.95892 10.8149 3.27322C10.5006 3.58752 10.3241 4.0138 10.3241 4.45828V4.60074C10.323 4.87038 10.2431 5.13383 10.0942 5.35865C9.9453 5.58347 9.73393 5.75984 9.48608 5.86607H9.41905C9.1663 5.97761 8.88594 6.01089 8.61411 5.9616C8.34227 5.91231 8.09144 5.78272 7.89395 5.58954L7.84367 5.53926C7.68802 5.38344 7.50318 5.25982 7.29973 5.17548C7.09627 5.09114 6.87819 5.04773 6.65794 5.04773C6.4377 5.04773 6.21962 5.09114 6.01616 5.17548C5.81271 5.25982 5.62787 5.38344 5.47222 5.53926C5.3164 5.69491 5.19278 5.87975 5.10844 6.0832C5.0241 6.28666 4.98069 6.50474 4.98069 6.72498C4.98069 6.94523 5.0241 7.16331 5.10844 7.36677C5.19278 7.57022 5.3164 7.75506 5.47222 7.91071L5.5225 7.96099C5.71568 8.15848 5.84527 8.40931 5.89456 8.68114C5.94385 8.95298 5.91057 9.23334 5.79903 9.48609C5.70326 9.74647 5.53138 9.97203 5.30572 10.1334C5.08006 10.2948 4.81106 10.3846 4.5337 10.3911H4.45828C4.0138 10.3911 3.58752 10.5677 3.27322 10.882C2.95892 11.1963 2.78235 11.6225 2.78235 12.067C2.78235 12.5115 2.95892 12.9378 3.27322 13.2521C3.58752 13.5664 4.0138 13.743 4.45828 13.743H4.60074C4.87038 13.744 5.13383 13.8239 5.35865 13.9728C5.58347 14.1217 5.75984 14.3331 5.86607 14.5809C5.97761 14.8337 6.01089 15.114 5.9616 15.3859C5.91231 15.6577 5.78272 15.9085 5.58954 16.106L5.53926 16.1563C5.38344 16.312 5.25982 16.4968 5.17548 16.7002C5.09114 16.9037 5.04773 17.1218 5.04773 17.342C5.04773 17.5623 5.09114 17.7804 5.17548 17.9838C5.25982 18.1873 5.38344 18.3721 5.53926 18.5278C5.69491 18.6836 5.87974 18.8072 6.0832 18.8915C6.28665 18.9759 6.50474 19.0193 6.72498 19.0193C6.94523 19.0193 7.16331 18.9759 7.36677 18.8915C7.57022 18.8072 7.75506 18.6836 7.91071 18.5278L7.96098 18.4775C8.15848 18.2843 8.40931 18.1547 8.68114 18.1054C8.95298 18.0561 9.23334 18.0894 9.48608 18.2009C9.74647 18.2967 9.97202 18.4686 10.1334 18.6943C10.2948 18.9199 10.3846 19.1889 10.3911 19.4663V19.5417C10.3911 19.9862 10.5677 20.4125 10.882 20.7268C11.1963 21.0411 11.6225 21.2176 12.067 21.2176C12.5115 21.2176 12.9378 21.0411 13.2521 20.7268C13.5664 20.4125 13.743 19.9862 13.743 19.5417V19.3992C13.744 19.1296 13.8239 18.8661 13.9728 18.6413C14.1217 18.4165 14.3331 18.2401 14.5809 18.1339C14.8337 18.0224 15.114 17.9891 15.3859 18.0384C15.6577 18.0877 15.9085 18.2173 16.106 18.4104L16.1563 18.4607C16.312 18.6165 16.4968 18.7402 16.7002 18.8245C16.9037 18.9088 17.1218 18.9522 17.342 18.9522C17.5623 18.9522 17.7804 18.9088 17.9838 18.8245C18.1873 18.7402 18.3721 18.6165 18.5278 18.4607C18.6836 18.3051 18.8072 18.1202 18.8915 17.9168C18.9759 17.7133 19.0193 17.4952 19.0193 17.275C19.0193 17.0547 18.9759 16.8367 18.8915 16.6332C18.8072 16.4298 18.6836 16.2449 18.5278 16.0893L18.4775 16.039C18.2843 15.8415 18.1547 15.5907 18.1054 15.3188ZM14.7653 12C14.7653 13.5272 13.5272 14.7653 12 14.7653C10.4728 14.7653 9.23469 13.5272 9.23469 12C9.23469 10.4728 10.4728 9.23469 12 9.23469C13.5272 9.23469 14.7653 10.4728 14.7653 12Z" fill="#242729"/>
</svg>
