<svg width="24" height="24" viewBox="0 0 24 24" fill="none" xmlns="http://www.w3.org/2000/svg">
<path fill-rule="evenodd" clip-rule="evenodd" d="M4.10236 7.80112C4.10236 6.93227 4.81925 6.01124 6.28567 5.27763C7.72226 4.55893 9.74188 4.09998 12 4.09998C14.2581 4.09998 16.2777 4.55893 17.7143 5.27763C19.1807 6.01124 19.8976 6.93227 19.8976 7.80112C19.8976 8.66996 19.1807 9.591 17.7143 10.3246C16.2777 11.0433 14.2581 11.5023 12 11.5023C9.74188 11.5023 7.72226 11.0433 6.28567 10.3246C4.81925 9.591 4.10236 8.66996 4.10236 7.80112ZM3.14326 7.33395H3.10236V7.80112V16.6698C3.10236 17.348 3.41353 17.9565 3.89999 18.468C4.384 18.9769 5.06076 19.4124 5.8588 19.7673C7.45615 20.4776 9.62781 20.9042 12 20.9042C14.3722 20.9042 16.5438 20.4776 18.1412 19.7673C18.9392 19.4124 19.616 18.9769 20.1 18.468C20.5865 17.9565 20.8976 17.348 20.8976 16.6698V12.4907C20.8977 12.4838 20.8977 12.4769 20.8977 12.47H20.8976V7.80112V7.33395H20.8567C20.6378 6.09595 19.5623 5.08397 18.1617 4.3833C16.559 3.58148 14.3798 3.09998 12 3.09998C9.62022 3.09998 7.44102 3.58148 5.83826 4.3833C4.43769 5.08397 3.36215 6.09595 3.14326 7.33395ZM19.8976 10.0017C19.4336 10.4731 18.8352 10.882 18.1617 11.2189C16.559 12.0208 14.3798 12.5023 12 12.5023C9.62022 12.5023 7.44102 12.0208 5.83826 11.2189C5.16476 10.882 4.56642 10.4731 4.10236 10.0017V12.47H4.10245C4.10245 12.823 4.26125 13.1969 4.62467 13.579C4.99055 13.9636 5.5436 14.3328 6.26523 14.6537C7.70724 15.2949 9.73439 15.7043 12.0001 15.7043C14.2658 15.7043 16.293 15.2949 17.735 14.6537C18.4566 14.3328 19.0096 13.9636 19.3755 13.579C19.7337 13.2023 19.8932 12.8337 19.8976 12.4851V10.0017ZM19.8976 14.4666C19.4345 14.8911 18.8335 15.2596 18.1413 15.5674C16.5439 16.2777 14.3723 16.7043 12.0001 16.7043C9.6279 16.7043 7.45624 16.2777 5.8589 15.5674C5.16654 15.2595 4.56547 14.891 4.10236 14.4664V16.6698C4.10236 17.0228 4.26116 17.3967 4.62458 17.7788C4.99045 18.1635 5.5435 18.5326 6.26513 18.8535C7.70714 19.4948 9.7343 19.9042 12 19.9042C14.2657 19.9042 16.2929 19.4948 17.7349 18.8535C18.4565 18.5326 19.0095 18.1635 19.3754 17.7788C19.7388 17.3967 19.8976 17.0228 19.8976 16.6698V14.4666Z" fill="#242729"/>
</svg>
