<svg width="24" height="24" viewBox="0 0 24 24" fill="none" xmlns="http://www.w3.org/2000/svg">
<path fill-rule="evenodd" clip-rule="evenodd" d="M18.6261 3.20792C17.6822 2.26403 16.1518 2.26403 15.2079 3.20792C14.264 4.15182 14.264 5.68218 15.2079 6.62608C16.1518 7.56997 17.6822 7.56997 18.6261 6.62608C19.57 5.68218 19.57 4.15182 18.6261 3.20792ZM19.3332 2.50082C17.9988 1.16639 15.8352 1.16639 14.5008 2.50082C13.1664 3.83524 13.1664 5.99876 14.5008 7.33318C15.7151 8.54751 17.616 8.6568 18.9539 7.66105L20.6464 9.35353C20.8417 9.5488 21.1583 9.5488 21.3535 9.35353C21.5488 9.15827 21.5488 8.84169 21.3535 8.64643L19.6611 6.95395C20.6568 5.61604 20.5475 3.71514 19.3332 2.50082ZM3.5 4C3.5 3.72414 3.72414 3.5 4 3.5H11C11.2761 3.5 11.5 3.27614 11.5 3C11.5 2.72386 11.2761 2.5 11 2.5H4C3.17186 2.5 2.5 3.17186 2.5 4V6.5C2.5 7.32814 3.17186 8 4 8H11C11.2761 8 11.5 7.77614 11.5 7.5C11.5 7.22386 11.2761 7 11 7H4C3.72414 7 3.5 6.77586 3.5 6.5V4ZM3.75 12C3.61214 12 3.5 12.1121 3.5 12.25V13.75C3.5 13.8879 3.61214 14 3.75 14H5.25C5.38786 14 5.5 13.8879 5.5 13.75V12.25C5.5 12.1121 5.38786 12 5.25 12H3.75ZM2.5 12.25C2.5 11.5599 3.05986 11 3.75 11H5.25C5.94014 11 6.5 11.5599 6.5 12.25V13.75C6.5 14.4401 5.94014 15 5.25 15H3.75C3.05986 15 2.5 14.4401 2.5 13.75V12.25ZM9.22205 12.5C8.9459 12.5 8.72205 12.7239 8.72205 13C8.72205 13.2761 8.9459 13.5 9.22205 13.5H21C21.2762 13.5 21.5 13.2761 21.5 13C21.5 12.7239 21.2762 12.5 21 12.5H9.22205ZM3.75 18.5C3.61214 18.5 3.5 18.6121 3.5 18.75V20.25C3.5 20.3879 3.61214 20.5 3.75 20.5H5.25C5.38786 20.5 5.5 20.3879 5.5 20.25V18.75C5.5 18.6121 5.38786 18.5 5.25 18.5H3.75ZM2.5 18.75C2.5 18.0599 3.05986 17.5 3.75 17.5H5.25C5.94014 17.5 6.5 18.0599 6.5 18.75V20.25C6.5 20.9401 5.94014 21.5 5.25 21.5H3.75C3.05986 21.5 2.5 20.9401 2.5 20.25V18.75ZM9.22205 19C8.9459 19 8.72205 19.2239 8.72205 19.5C8.72205 19.7761 8.9459 20 9.22205 20H21C21.2762 20 21.5 19.7761 21.5 19.5C21.5 19.2239 21.2762 19 21 19H9.22205Z" fill="#242729"/>
</svg>
