<svg width="24" height="24" viewBox="0 0 24 24" fill="none" xmlns="http://www.w3.org/2000/svg">
<path fill-rule="evenodd" clip-rule="evenodd" d="M12.0002 2.97363C13.6087 2.97363 14.9384 4.16717 15.1521 5.71692H8.84839C9.06202 4.16717 10.3917 2.97363 12.0002 2.97363ZM17.5281 5.71692H16.1593C15.9401 3.61347 14.1617 1.97363 12.0002 1.97363C9.83878 1.97363 8.06033 3.61347 7.84113 5.71692H6.47192C4.70409 5.71692 3.2138 7.0352 2.99808 8.78982L2.81923 10.2444C2.70241 11.1946 2.97943 12.113 3.53229 12.8229C3.51144 12.8779 3.50002 12.9376 3.50002 13V17C3.50002 18.933 5.06702 20.5 7.00002 20.5H17C18.933 20.5 20.5 18.933 20.5 17V13C20.5 12.9376 20.4886 12.8779 20.4677 12.8228C21.0206 12.1129 21.2976 11.1946 21.1808 10.2444L21.0019 8.78981C20.7862 7.0352 19.2959 5.71692 17.5281 5.71692ZM19.5 13.6779C19.237 13.8347 18.9496 13.959 18.6421 14.0443L12.9352 15.6267C12.3233 15.7963 11.6767 15.7963 11.0648 15.6267L5.35789 14.0443C5.05047 13.959 4.76306 13.8347 4.50002 13.6779V17C4.50002 18.3807 5.61931 19.5 7.00002 19.5H17C18.3807 19.5 19.5 18.3807 19.5 17V13.6779ZM6.47192 6.71692C5.20919 6.71692 4.14469 7.65855 3.9906 8.91185L3.81176 10.3664C3.66067 11.5954 4.43191 12.7498 5.62509 13.0806L11.332 14.663C11.7691 14.7842 12.2309 14.7842 12.668 14.663L18.3749 13.0806C19.5681 12.7498 20.3393 11.5954 20.1882 10.3664L20.0094 8.91184C19.8553 7.65855 18.7908 6.71692 17.5281 6.71692H6.47192Z" fill="#242729"/>
</svg>
