<svg width="24" height="24" viewBox="0 0 24 24" fill="none" xmlns="http://www.w3.org/2000/svg">
<path d="M11.1646 7.11599L15.1953 3.08531C15.5905 2.69015 16.2308 2.69015 16.6249 3.08531L20.9147 7.3751C21.3099 7.77027 21.3099 8.41053 20.9147 8.8047L16.876 12.8434" stroke="#242729" stroke-linecap="round" stroke-linejoin="round"/>
<path d="M15.9186 6.29363L15.1323 7.07996" stroke="#242729" stroke-linecap="round" stroke-linejoin="round"/>
<path fill-rule="evenodd" clip-rule="evenodd" d="M13.8808 17.8765L16.5999 15.1573C17.3442 14.413 17.3442 13.2055 16.5999 12.4612L11.5388 7.40009C10.7945 6.65578 9.58699 6.65578 8.84268 7.40009L5.83142 10.4113C4.40383 11.8389 4.40383 14.1549 5.83142 15.5825L8.4175 18.1686C9.84409 19.5972 12.4522 19.304 13.8808 17.8765Z" stroke="#242729" stroke-linecap="round" stroke-linejoin="round"/>
<path d="M17.7064 8.08141L16.92 8.86774" stroke="#242729" stroke-linecap="round" stroke-linejoin="round"/>
<path d="M8.78466 18.4797L6.76782 20.4965C6.36765 20.8967 5.71938 20.8967 5.31921 20.4965L3.50246 18.6798C3.10229 18.2796 3.10229 17.6313 3.50246 17.2312L5.50329 15.2303" stroke="#242729" stroke-linecap="round" stroke-linejoin="round"/>
</svg>
