<svg width="24" height="24" viewBox="0 0 24 24" fill="none" xmlns="http://www.w3.org/2000/svg">
<path fill-rule="evenodd" clip-rule="evenodd" d="M2 1.5C1.72386 1.5 1.5 1.72386 1.5 2C1.5 2.27614 1.72386 2.5 2 2.5H5.22443L6.05019 6.73563C6.05272 6.75396 6.05625 6.77197 6.06071 6.78961L7.58183 14.592L7.58188 14.5923C7.68672 15.1339 7.97424 15.6231 8.39743 15.9728C8.81964 16.3218 9.34973 16.5091 9.89555 16.4997H18.7226C19.2684 16.5091 19.7985 16.3218 20.2208 15.9728C20.644 15.623 20.9315 15.1337 21.0364 14.592L21.037 14.5883L22.4916 6.75787C22.5187 6.61177 22.4795 6.46117 22.3845 6.34691C22.2895 6.23265 22.1486 6.16655 22 6.16655H6.95807L6.12712 1.90432C6.08134 1.66949 5.87562 1.5 5.63636 1.5H2ZM8.56349 14.4014L7.15302 7.16655H21.3986L20.0546 14.4021L20.0542 14.4038C19.9925 14.7208 19.8248 15.0027 19.5837 15.202C19.3425 15.4014 19.0427 15.5058 18.7371 15.4998L18.7371 15.4997H18.7273H9.89091V15.4996L9.88107 15.4998C9.57544 15.5058 9.27571 15.4014 9.03447 15.202C8.79293 15.0024 8.62508 14.7197 8.56363 14.4021L8.56349 14.4014ZM9 19.5C8.72386 19.5 8.5 19.7239 8.5 20C8.5 20.2761 8.72386 20.5 9 20.5C9.27614 20.5 9.5 20.2761 9.5 20C9.5 19.7239 9.27614 19.5 9 19.5ZM7.5 20C7.5 19.1716 8.17157 18.5 9 18.5C9.82843 18.5 10.5 19.1716 10.5 20C10.5 20.8284 9.82843 21.5 9 21.5C8.17157 21.5 7.5 20.8284 7.5 20ZM19 19.5C18.7239 19.5 18.5 19.7239 18.5 20C18.5 20.2761 18.7239 20.5 19 20.5C19.2761 20.5 19.5 20.2761 19.5 20C19.5 19.7239 19.2761 19.5 19 19.5ZM17.5 20C17.5 19.1716 18.1716 18.5 19 18.5C19.8284 18.5 20.5 19.1716 20.5 20C20.5 20.8284 19.8284 21.5 19 21.5C18.1716 21.5 17.5 20.8284 17.5 20Z" fill="#242729"/>
</svg>
