<svg width="24" height="24" viewBox="0 0 24 24" fill="none" xmlns="http://www.w3.org/2000/svg">
<path fill-rule="evenodd" clip-rule="evenodd" d="M7.5 3H16.504C18.987 3 21 5.013 21 7.496V16.505C21 18.987 18.987 21 16.504 21H7.496C5.013 21 3 18.987 3 16.504V7.5C3 5.015 5.015 3 7.5 3V3Z" stroke="#323232" stroke-width="1.5" stroke-linecap="round" stroke-linejoin="round"/>
<path d="M17.8 10.55C17.8 10.1358 17.4642 9.8 17.05 9.8C16.6358 9.8 16.3 10.1358 16.3 10.55H17.8ZM6.85559 14.9076C6.61124 14.5731 6.14201 14.5001 5.80755 14.7444C5.47309 14.9888 5.40005 15.458 5.64441 15.7924L6.85559 14.9076ZM6.13303 14.6092C5.72388 14.6738 5.44458 15.0578 5.50918 15.467C5.57378 15.8761 5.95783 16.1554 6.36697 16.0908L6.13303 14.6092ZM8.05 14.75L8.28837 15.4611C8.53392 15.3788 8.71963 15.1756 8.77961 14.9237C8.83959 14.6718 8.76534 14.4067 8.58322 14.2226L8.05 14.75ZM7.45 7.55L8.11062 7.19492C7.98802 6.96684 7.75645 6.81813 7.49805 6.80154C7.23965 6.78495 6.99096 6.90283 6.84021 7.11336L7.45 7.55ZM11.05 10.55L10.8727 11.2788C11.0921 11.3321 11.3239 11.2838 11.5037 11.1472C11.6835 11.0106 11.7922 10.8003 11.7996 10.5747L11.05 10.55ZM16.45 8.75L15.824 9.1631C15.9628 9.37344 16.198 9.5 16.45 9.5V8.75ZM18.25 8.75L18.874 9.16603C19.0275 8.93589 19.0418 8.63998 18.9113 8.39611C18.7807 8.15224 18.5266 8 18.25 8V8.75ZM16.426 10.134C16.1962 10.4786 16.2893 10.9443 16.634 11.174C16.9786 11.4038 17.4443 11.3107 17.674 10.966L16.426 10.134ZM16.3 10.55C16.3 12.512 15.7401 14.121 14.7626 15.2288C13.7954 16.3249 12.3593 17 10.45 17V18.5C12.7407 18.5 14.6046 17.6751 15.8874 16.2212C17.1599 14.779 17.8 12.788 17.8 10.55H16.3ZM10.45 17C9.39463 17 8.7077 16.729 8.19749 16.3679C7.66436 15.9906 7.27821 15.486 6.85559 14.9076L5.64441 15.7924C6.05979 16.361 6.57364 17.0564 7.33101 17.5923C8.1113 18.1445 9.10537 18.5 10.45 18.5V17ZM6.36697 16.0908C6.39335 16.0867 6.41373 16.082 6.42051 16.0804C6.42992 16.0782 6.43748 16.0762 6.44194 16.0751C6.45085 16.0727 6.45799 16.0706 6.46146 16.0696C6.46891 16.0675 6.47537 16.0655 6.47894 16.0644C6.48681 16.0619 6.49542 16.0592 6.50327 16.0567C6.51958 16.0514 6.54143 16.0443 6.56708 16.0358C6.61878 16.0188 6.69084 15.995 6.77585 15.9667C6.9461 15.9101 7.17099 15.835 7.39489 15.7602C7.61889 15.6853 7.84225 15.6106 8.00959 15.5545C8.09327 15.5265 8.16295 15.5031 8.21172 15.4868C8.2361 15.4786 8.25526 15.4722 8.26832 15.4678C8.27485 15.4656 8.27986 15.464 8.28324 15.4628C8.28493 15.4623 8.28621 15.4618 8.28707 15.4616C8.2875 15.4614 8.28782 15.4613 8.28804 15.4612C8.28815 15.4612 8.28823 15.4612 8.28828 15.4611C8.28831 15.4611 8.28833 15.4611 8.28835 15.4611C8.28836 15.4611 8.28837 15.4611 8.05 14.75C7.81163 14.0389 7.81163 14.0389 7.81161 14.0389C7.8116 14.0389 7.81158 14.0389 7.81155 14.0389C7.8115 14.0389 7.81142 14.039 7.81131 14.039C7.8111 14.0391 7.81078 14.0392 7.81035 14.0393C7.8095 14.0396 7.80822 14.04 7.80654 14.0406C7.80318 14.0417 7.79818 14.0434 7.79167 14.0456C7.77863 14.05 7.75951 14.0564 7.73515 14.0645C7.68645 14.0808 7.61684 14.1042 7.53325 14.1322C7.36606 14.1881 7.14299 14.2628 6.91936 14.3376C6.69564 14.4123 6.47171 14.4871 6.30268 14.5433C6.21805 14.5714 6.14785 14.5947 6.09852 14.6109C6.07365 14.6191 6.05529 14.6251 6.04342 14.6289C6.03718 14.6309 6.03471 14.6317 6.03473 14.6317C6.0349 14.6316 6.03561 14.6314 6.03673 14.631C6.03774 14.6307 6.03992 14.6301 6.04287 14.6292C6.0452 14.6286 6.05141 14.6268 6.0596 14.6246C6.06369 14.6235 6.07094 14.6216 6.0801 14.6195C6.08662 14.618 6.10679 14.6133 6.13303 14.6092L6.36697 16.0908ZM8.58322 14.2226C6.84139 12.4616 6.71219 9.8686 8.05979 7.98665L6.84021 7.11336C5.07581 9.5774 5.25061 12.9864 7.51678 15.2774L8.58322 14.2226ZM6.78938 7.90509C7.60057 9.41424 9.1313 10.8551 10.8727 11.2788L11.2273 9.82126C10.0007 9.52288 8.77543 8.43176 8.11062 7.19492L6.78938 7.90509ZM11.7996 10.5747C11.8227 9.87235 12.0694 9.30824 12.4448 8.92471C12.8161 8.54525 13.3541 8.3 14.05 8.3V6.8C12.9789 6.8 12.0454 7.18825 11.3727 7.87554C10.7041 8.55876 10.3343 9.49465 10.3004 10.5253L11.7996 10.5747ZM14.05 8.3C14.5545 8.3 14.9057 8.39561 15.1646 8.53377C15.4218 8.67109 15.6339 8.875 15.824 9.1631L17.076 8.33691C16.7771 7.88401 16.3907 7.48791 15.8709 7.21049C15.3528 6.9339 14.7485 6.8 14.05 6.8V8.3ZM16.45 9.5H18.25V8H16.45V9.5ZM17.626 8.33398L16.426 10.134L17.674 10.966L18.874 9.16603L17.626 8.33398Z" fill="#323232"/>
</svg>
