<svg width="24" height="24" viewBox="0 0 24 24" fill="none" xmlns="http://www.w3.org/2000/svg">
<path d="M2 19C2 16.8 3.8 15 6 15H10C12.2 15 14 16.8 14 19" stroke="#242729" stroke-linecap="round" stroke-linejoin="round"/>
<path d="M10.5 6.00003C11.9 7.40003 11.9 9.60003 10.5 10.9C9.09999 12.2 6.89999 12.3 5.59999 10.9C4.29999 9.50003 4.19999 7.40003 5.49999 6.00003C6.79999 4.60003 9.09999 4.70003 10.5 6.00003" stroke="#242729" stroke-linecap="round" stroke-linejoin="round"/>
<path d="M14.5 14H19C20.7 14 22 15.3 22 17" stroke="#242729" stroke-linecap="round" stroke-linejoin="round"/>
<path d="M19.3 6.70002C20.3 7.70002 20.3 9.30002 19.3 10.2C18.3 11.1 16.7 11.2 15.8 10.2C14.9 9.20002 14.8 7.60002 15.8 6.70002C16.7 5.80002 18.3 5.80002 19.3 6.70002" stroke="#242729" stroke-linecap="round" stroke-linejoin="round"/>
</svg>
