<svg width="24" height="24" viewBox="0 0 24 24" fill="none" xmlns="http://www.w3.org/2000/svg">
<path fill-rule="evenodd" clip-rule="evenodd" d="M9.87868 4.87868C11.0503 3.70711 12.9497 3.70711 14.1213 4.87868C15.2929 6.05026 15.2929 7.94975 14.1213 9.12133C12.9497 10.2929 11.0503 10.2929 9.87868 9.12133C8.70711 7.94975 8.70711 6.05026 9.87868 4.87868ZM9.17158 4.17158C10.7337 2.60947 13.2663 2.60947 14.8284 4.17158C16.3905 5.73368 16.3905 8.26633 14.8284 9.82843C13.2663 11.3905 10.7337 11.3905 9.17158 9.82843C7.60947 8.26633 7.60947 5.73368 9.17158 4.17158ZM12 13.008C9.90341 13.008 7.8134 13.5156 6.23044 14.4371C4.65198 15.3561 3.5 16.7412 3.5 18.5V19.5C3.5 20.3281 4.17186 21 5 21H19C19.8281 21 20.5 20.3281 20.5 19.5V18.5C20.5 16.7412 19.348 15.3561 17.7696 14.4371C16.1866 13.5156 14.0966 13.008 12 13.008ZM4.5 18.5C4.5 17.2328 5.32402 16.1219 6.73356 15.3014C8.1386 14.4834 10.0486 14.008 12 14.008C13.9514 14.008 15.8614 14.4834 17.2664 15.3014C18.676 16.1219 19.5 17.2328 19.5 18.5V19.5C19.5 19.7759 19.2759 20 19 20H5C4.72414 20 4.5 19.7759 4.5 19.5V18.5Z" fill="#242729"/>
</svg>
