<svg width="24" height="24" viewBox="0 0 24 24" fill="none" xmlns="http://www.w3.org/2000/svg">
<rect x="3.5" y="7.57568" width="17.0556" height="11.3107" rx="3.5" stroke="#242729"/>
<path fill-rule="evenodd" clip-rule="evenodd" d="M7 5.61365H13.7728C14.8675 5.61365 15.8253 6.2 16.3492 7.07578H17.0556C17.1974 7.07578 17.3375 7.08316 17.4755 7.09755C16.8781 5.64017 15.4453 4.61365 13.7728 4.61365H7C4.79086 4.61365 3 6.40451 3 8.61365V11.0758C3 10.0581 3.38004 9.1292 4.00595 8.42324C4.10417 6.8551 5.40711 5.61365 7 5.61365Z" fill="#242729"/>
<path d="M15.8107 13.0884C15.8107 12.3102 16.4416 11.6793 17.2198 11.6793H20.5557V14.7829H17.2198C16.4416 14.7829 15.8107 14.152 15.8107 13.3738V13.0884Z" stroke="#242729"/>
</svg>
